<svg xmlns="http://www.w3.org/2000/svg" width="168" height="168" viewBox="0 0 168 168"><defs><style>.a{fill:#fff;stroke:#707070;opacity:0;}.b{fill:#008ed4;}.c{fill:#002561;}.d,.h{fill:none;}.d{stroke:#002561;stroke-linecap:round;stroke-linejoin:round;stroke-width:2.8px;}.e{fill:#ee2d67;}.f{fill:#00bdf2;}.g{stroke:none;}</style></defs><g transform="translate(-529 -255)"><g class="a" transform="translate(529 255)"><rect class="g" width="168" height="168"/><rect class="h" x="0.5" y="0.5" width="167" height="167"/></g><g transform="translate(511.996 237.174)"><g transform="translate(21.964 60.175)"><path class="b" d="M178.5,98.175l-12.644,6.079-26.25,12.6V98.367c0-5.769-17.319-10.461-38.683-10.461S62.256,92.6,62.15,98.367v18.428L23.364,98.175l77.562-36.84Z" transform="translate(-21.889 -59.859)"/><path class="c" d="M139.685,118.4a1.475,1.475,0,0,1-1.474-1.475V98.442c0-3.753-14.156-8.984-37.209-8.984-23.008,0-37.232,5.248-37.3,9.011v18.4a1.475,1.475,0,0,1-2.114,1.33L22.8,99.58a1.475,1.475,0,0,1,.005-2.662l77.563-36.841a1.471,1.471,0,0,1,1.266,0l77.577,36.841a1.475,1.475,0,0,1,.006,2.662l-38.895,18.679A1.477,1.477,0,0,1,139.685,118.4ZM101,86.506c19.468,0,40.159,4.184,40.159,11.936v16.142l34-16.325L101,63.044,26.863,98.258l33.888,16.269V98.442C60.893,90.681,81.595,86.506,101,86.506Z" transform="translate(-21.964 -59.934)"/></g><path class="c" d="M60.307,115.553a1.41,1.41,0,0,1-.632-.153l-.091-.045a1.475,1.475,0,1,1,1.319-2.639,1.519,1.519,0,0,1,.706,2A1.468,1.468,0,0,1,60.307,115.553Z" transform="translate(1.982 3.075)"/><path class="c" d="M133.744,115.567h-.013a1.475,1.475,0,1,1,.013,0Z" transform="translate(5.941 3.078)"/><path class="d" d="M96.965,127.161" transform="translate(4.04 3.862)"/><g transform="translate(21.964 55.469)"><path class="e" d="M178.5,93.724v4.691L100.927,61.575,23.364,98.416V93.724l77.563-36.855Z" transform="translate(-21.889 -55.394)"/><path class="c" d="M23.439,99.967a1.476,1.476,0,0,1-1.475-1.476V93.8a1.478,1.478,0,0,1,.842-1.333l77.562-36.855a1.474,1.474,0,0,1,1.267,0l77.577,36.855a1.478,1.478,0,0,1,.842,1.333v4.691a1.475,1.475,0,0,1-2.108,1.333L101,63.284l-76.93,36.54A1.466,1.466,0,0,1,23.439,99.967ZM101,60.176a1.481,1.481,0,0,1,.633.142L177.1,96.157V94.733L101,58.578,24.915,94.733v1.424l75.455-35.839A1.476,1.476,0,0,1,101,60.176Z" transform="translate(-21.964 -55.469)"/></g><g transform="translate(60.857 123.794)"><path class="b" d="M137.622,132.148c0,5.769-17.319,10.462-38.683,10.462s-38.671-4.693-38.671-10.462c0-1.49,1.152-2.891,3.2-4.19,0-.015.015,0,.015,0,.576-.339,1.21-.693,1.9-1.017.472-.222.959-.429,1.49-.634.354-.149.708-.281,1.077-.413s.767-.267,1.152-.385c1.384-.457,2.906-.87,4.557-1.269q.688-.155,1.417-.31c.547-.118,1.093-.236,1.667-.338s1.166-.208,1.757-.311,1.194-.191,1.8-.294c2.554-.369,5.284-.68,8.161-.9.574-.044,1.163-.073,1.755-.118,2.8-.177,5.725-.265,8.72-.265C120.3,121.7,137.622,126.38,137.622,132.148Z" transform="translate(-58.794 -120.227)"/><path class="c" d="M99.014,144.16c-19.461,0-40.145-4.184-40.145-11.937,0-1.951,1.278-3.76,3.8-5.382a1.524,1.524,0,0,1,.3-.171c.5-.293,1.149-.653,1.872-.992.5-.234,1.018-.454,1.581-.672.344-.144.722-.287,1.116-.427l.121-.042c.365-.126.729-.254,1.095-.365,1.3-.429,2.826-.855,4.642-1.292.485-.11.965-.216,1.462-.318.553-.121,1.118-.242,1.711-.348l1.758-.312c.308-.054.615-.1.924-.152.292-.046.586-.093.879-.143,2.758-.4,5.536-.706,8.3-.917.31-.024.627-.045.946-.064l.81-.055c2.839-.179,5.8-.27,8.83-.27,26.365,0,40.159,6,40.159,11.921C139.172,139.977,118.482,144.16,99.014,144.16Zm-34.79-14.81c-1.123.727-2.4,1.794-2.4,2.873,0,3.752,14.151,8.985,37.2,8.985s37.209-5.234,37.209-8.985-14.156-8.969-37.209-8.969c-2.965,0-5.867.087-8.627.262l-.829.056c-.3.018-.6.037-.9.06-2.7.208-5.413.507-8.066.891-.267.046-.573.095-.879.143s-.589.094-.878.143l-1.746.31c-.561.1-1.089.214-1.617.329-.489.1-.954.2-1.4.307-1.718.413-3.17.817-4.422,1.23-.361.111-.691.226-1.02.339l-.11.038c-.331.119-.662.242-.992.382-.533.207-.99.4-1.433.608-.688.321-1.314.679-1.782.954C64.28,129.322,64.252,129.336,64.224,129.35Z" transform="translate(-58.869 -120.302)"/></g><path class="d" d="M96.968,121.7" transform="translate(4.04 3.568)"/><g transform="translate(60.751 86.747)"><path class="f" d="M137.627,97.009v37.033c0-5.768-17.319-10.445-38.683-10.445-3,0-5.915.087-8.72.265-.591.045-1.18.074-1.755.118-2.877.221-5.608.532-8.161.9-.6.1-1.209.192-1.8.294s-1.181.208-1.757.311-1.12.22-1.667.338q-.73.155-1.417.31c-1.651.4-3.173.811-4.557,1.269-.385.118-.768.252-1.152.385s-.723.265-1.077.413c-.531.206-1.018.412-1.49.634a16.33,16.33,0,0,0-1.9,1.017s-.015-.015-.015,0c-2.109,1.269-3.29,2.685-3.307,4.19V97.009c.105-5.769,17.427-10.461,38.776-10.461S137.627,91.24,137.627,97.009Z" transform="translate(-58.694 -85.073)"/><path class="c" d="M60.243,135.592h-.007a1.476,1.476,0,0,1-1.467-1.475V97.084c.141-7.762,20.843-11.936,40.25-11.936,19.468,0,40.159,4.184,40.159,11.936v37.033a1.475,1.475,0,1,1-2.95,0c0-3.745-14.156-8.969-37.209-8.969-2.965,0-5.867.087-8.627.262l-.829.056c-.3.018-.6.037-.9.06-2.7.208-5.413.507-8.066.891-.267.046-.573.095-.879.143s-.589.094-.878.143l-1.746.31c-.561.1-1.089.214-1.617.329-.489.1-.954.2-1.4.307-1.718.413-3.17.817-4.422,1.23-.361.111-.691.226-1.02.339l-.11.038c-.331.119-.662.242-.992.382-.533.207-.99.4-1.433.608a14.673,14.673,0,0,0-1.734.924,1.494,1.494,0,0,1-.161.09c-1.591.979-2.471,2-2.481,2.873A1.475,1.475,0,0,1,60.243,135.592Zm38.776-13.4c19.3,0,31.859,3.212,37.209,7.258V97.084c0-3.753-14.156-8.984-37.209-8.984-23.008,0-37.232,5.248-37.3,9.011v32.261q.455-.334.981-.654a1.541,1.541,0,0,1,.229-.133,18.111,18.111,0,0,1,1.915-1.012c.5-.234,1.018-.454,1.581-.672.344-.144.722-.287,1.116-.427l.121-.042c.365-.126.729-.254,1.095-.365,1.3-.429,2.826-.855,4.642-1.292.485-.11.965-.215,1.462-.318.553-.121,1.118-.242,1.711-.348l1.758-.312c.308-.054.615-.1.924-.152.292-.046.586-.093.879-.143,2.758-.4,5.536-.706,8.3-.917.31-.024.627-.045.946-.064l.81-.055C93.028,122.286,95.994,122.2,99.019,122.2Z" transform="translate(-58.769 -85.148)"/></g><path class="c" d="M158.654,134.764a1.475,1.475,0,0,1-1.475-1.476V102.129a1.475,1.475,0,1,1,2.951,0v31.159A1.476,1.476,0,0,1,158.654,134.764Z" transform="translate(7.283 2.434)"/><g transform="translate(161.272 134.239)"><path class="e" d="M161.941,134.817a3.194,3.194,0,1,1-3.2-3.2A3.2,3.2,0,0,1,161.941,134.817Z" transform="translate(-154.077 -130.138)"/><path class="c" d="M158.814,139.569a4.678,4.678,0,1,1,4.677-4.677A4.675,4.675,0,0,1,158.814,139.569Zm0-6.4a1.721,1.721,0,0,0-1.712,1.727,1.7,1.7,0,0,0,1.712,1.725,1.726,1.726,0,1,0,0-3.452Z" transform="translate(-154.152 -130.213)"/></g></g></g></svg>