<svg xmlns="http://www.w3.org/2000/svg" width="696.718" height="684.074" viewBox="0 0 696.718 684.074"><defs><style>.a{fill:#00c1f3;}.b{fill:#1c315d;}</style></defs><g transform="translate(-161.145 -145.366)"><path class="a" d="M426.191,829.44c-23.525,0-48.53-4.96-48.53-14.151V793.555L331.1,771.212a1.413,1.413,0,0,1-.287-.174l-.006,0h0a1.637,1.637,0,0,1-.195-.189h0l0,0a1.392,1.392,0,0,1-.332-.868l0-.008v-.035h0V764.2a1.405,1.405,0,0,1,.8-1.271l94.518-44.9a1.418,1.418,0,0,1,1.205,0l94.523,44.9a1.405,1.405,0,0,1,.8,1.271v5.727h0v.029l0,.012v0a1.4,1.4,0,0,1-.316.849l0,0,0,0a1.469,1.469,0,0,1-.228.224h0a1.253,1.253,0,0,1-.272.162l-14.581,7v35.862a5.3,5.3,0,1,1-2.814,0V779.56l-29.176,14v21.73C474.734,824.48,449.722,829.44,426.191,829.44Zm0-25.473c-29.438,0-45.716,6.7-45.716,11.322s16.278,11.337,45.716,11.337,45.73-6.7,45.73-11.337S455.637,803.966,426.191,803.966Zm79.125,12.728a2.489,2.489,0,1,0,2.488,2.488A2.488,2.488,0,0,0,505.316,816.694Zm-79.125-15.542c18.806,0,38.554,3.163,45.73,9.12V792.785a1.358,1.358,0,0,1,0-.216V770.163c0-4.636-16.284-11.337-45.73-11.337s-45.716,6.7-45.716,11.337v40.11C387.649,804.316,407.392,801.153,426.191,801.153Zm0-45.141c23.531,0,48.543,4.96,48.543,14.151v20.276l29.874-14.332a1.139,1.139,0,0,1,.206-.1l12.645-6.069L426.2,726.583l-91.255,43.354,42.715,20.5V770.163C377.661,760.971,402.666,756.012,426.191,756.012Zm-93.1,9.081v2.613L425.6,723.754a1.4,1.4,0,0,1,1.205,0l92.514,43.952v-2.613L426.2,720.858Zm324.886,39.516a1.4,1.4,0,0,1-.553-.116l-15.472-6.636a1.384,1.384,0,0,1-.409-.266l0,0-.008-.008-.008-.008,0,0-.014-.012-29.594-29.6-.01-.01-5.523-5.519,0,0a7.654,7.654,0,1,1,10.83-10.819l5.51,5.508.01.01,5.128,5.128.01.01,24.466,24.468.025.027h0a1.224,1.224,0,0,1,.17.218h0l.023.037v0l.017.027,0,.008,0,0,0,.006v0l.008.013h0l0,.01,0,.006,0,.008,0,0,0,.01.006.008,0,.008,0,.006.006.012,0,0,0,.01,0,.01,0,.008,6.634,15.457a1.427,1.427,0,0,1,.112.42h0v.012l0,.008v.006a1.431,1.431,0,0,1-.068.571v0l0,.006h0l0,.006v0l0,.006,0,0,0,.006,0,.006a1.335,1.335,0,0,1-.218.39v0l0,0,0,.006h0l0,.006h0l0,0v0l-.017.017v0l0,0,0,0,0,.006,0,0-.006.006,0,0,0,0,0,0,0,0,0,0,0,0,0,0,0,.006h0l0,.006-.006,0v0l0,0,0,0-.016.015,0,0h0l-.006.006h0a1.4,1.4,0,0,1-.773.39h0l-.01,0h0A1.38,1.38,0,0,1,657.975,804.609Zm-5.076-5.714,1.664.889-.887-1.666Zm-7.934-2.8,4.729,2.031,3.2-3.2-2.031-4.727Zm-24.947-24,22.484,22.49,6.846-6.844-22.488-22.492Zm-5.132-5.128,3.143,3.138,6.84-6.844-3.14-3.139Zm-6.518-6.514,4.528,4.526,6.846-6.848-4.526-4.522a4.851,4.851,0,0,0-8.275,3.419,4.879,4.879,0,0,0,1.427,3.425Zm-28.8,34.126H539.127a1.408,1.408,0,0,1-1.406-1.408V788.5a1.407,1.407,0,0,1,1.406-1.406H540.4c.476-14.6,8.582-22.44,16.8-29.747-8.206-7.29-16.309-15.109-16.8-29.61h-1.277a1.409,1.409,0,0,1-1.406-1.408v-4.663a1.407,1.407,0,0,1,1.406-1.406h40.444a1.409,1.409,0,0,1,1.408,1.406v4.663a1.411,1.411,0,0,1-1.408,1.408H578.3c-.492,14.5-8.6,22.32-16.8,29.612,8.221,7.307,16.328,15.148,16.8,29.745h1.269a1.409,1.409,0,0,1,1.408,1.406v4.665A1.409,1.409,0,0,1,579.571,794.571Zm-39.036-2.814h37.63v-1.851h-37.63Zm18.814-4.707h16.135c-.5-13.461-7.984-20.571-16.133-27.8-8.15,7.23-15.632,14.34-16.132,27.8Zm-16.13-59.314c.5,13.4,7.988,20.486,16.13,27.71,8.144-7.224,15.63-14.311,16.135-27.71Zm34.053-2.814h.893v-1.849h-37.63v1.849h.9a1.413,1.413,0,0,1,.353-.046h35.133A1.429,1.429,0,0,1,577.272,724.923Zm156.713,57.316a1.413,1.413,0,0,1-1.211-.69l-14.357-24.306a1.407,1.407,0,1,1,2.422-1.431l12.979,21.969,4.742-10.553-4.393-7.644a2.884,2.884,0,0,1,1.066-3.921,2.869,2.869,0,0,1,3.915,1.061l4.441,7.725,12.01.692-8.925-16.247a1.406,1.406,0,1,1,2.463-1.356l10.153,18.475a1.41,1.41,0,0,1-.042,1.429,1.468,1.468,0,0,1-1.271.654l-15.31-.883a1.4,1.4,0,0,1-1.136-.7l-4.819-8.385,4.646,8.325a1.4,1.4,0,0,1,.064,1.277l-6.154,13.684a1.4,1.4,0,0,1-1.205.827Zm-32.155,0-.077,0a1.4,1.4,0,0,1-1.205-.827l-6.088-13.54a1.4,1.4,0,0,1,.066-1.277l4.839-8.41L694.44,766.5a1.4,1.4,0,0,1-1.138.7l-15.47.895a1.473,1.473,0,0,1-1.271-.654,1.405,1.405,0,0,1-.041-1.429l10.155-18.475a1.406,1.406,0,0,1,2.465,1.356l-8.931,16.245,12.171-.7,4.434-7.714a2.871,2.871,0,0,1,3.928-1.055,2.884,2.884,0,0,1,1.067,3.9l-4.488,7.8L702,777.78l12.967-21.969a1.407,1.407,0,0,1,2.422,1.431l-14.348,24.306A1.413,1.413,0,0,1,701.83,782.239Zm-397.94-.515a2.885,2.885,0,0,1-1.961-.762.991.991,0,0,1-.114-.106,2.936,2.936,0,0,1-.789-1.545l-2.114-12.678-12.658-2.11a2.9,2.9,0,0,1-.762-5.488l32.475-15.322a2.914,2.914,0,0,1,3.286.567l.008.008a2.924,2.924,0,0,1,.623,3.184l-.044.1,0,0,0,0-15.275,32.375a2.674,2.674,0,0,1-.631.926,2.875,2.875,0,0,1-2.036.841Zm-.066-2.841c.014-.037.177-.093.193-.127l13.746-29.139L301.62,765.77l2.177,13.061-.013.012Zm11.22-30.522-28.35,13.216,12.842,2.3ZM717.9,755.2h0a1.414,1.414,0,0,1-1.182-.642l-3.548-5.477-4.634,4.667a1.385,1.385,0,0,1-1.282.4,1.405,1.405,0,0,1-1.032-.858l-2.416-6.059-5.456,3.664a1.4,1.4,0,0,1-2.179-.9l-1.188-6.408-6.079,2.532a1.407,1.407,0,0,1-1.961-1.313l.094-6.522-6.445,1.3a1.4,1.4,0,0,1-1.668-1.666l1.356-6.375-6.578.013a1.5,1.5,0,0,1-1.19-.625,1.413,1.413,0,0,1-.121-1.338l2.576-5.992-6.46-1.265a1.408,1.408,0,0,1-.9-2.181l3.7-5.367-6.08-2.5a1.407,1.407,0,0,1-.461-2.314l4.671-4.549-5.477-3.649a1.406,1.406,0,0,1,0-2.359l5.463-3.548.01-.006a.067.067,0,0,0,.021-.039l-4.688-4.592a1.407,1.407,0,0,1,.461-2.314l6.055-2.413-3.672-5.461a1.4,1.4,0,0,1,.9-2.179l6.41-1.188-2.528-6.071a1.407,1.407,0,0,1,1.311-1.963l6.52.089-1.3-6.449a1.406,1.406,0,0,1,1.668-1.668l6.37,1.358-.019-6.576a1.4,1.4,0,0,1,1.961-1.311l6,2.576,1.271-6.451a1.406,1.406,0,0,1,2.179-.9L703.718,654l2.507-6.086a1.4,1.4,0,0,1,1.032-.858,1.38,1.38,0,0,1,1.282.4l4.549,4.673,3.627-5.477a1.416,1.416,0,0,1,1.18-.642h0a1.406,1.406,0,0,1,1.178.64l3.562,5.473,4.638-4.667a1.413,1.413,0,0,1,1.282-.4,1.393,1.393,0,0,1,1.032.86L732,653.984l5.465-3.674a1.407,1.407,0,0,1,2.179.9l1.188,6.4,6.071-2.53a1.4,1.4,0,0,1,1.961,1.309l-.087,6.522,6.441-1.3a1.408,1.408,0,0,1,1.67,1.668l-1.352,6.374,6.576-.014a1.463,1.463,0,0,1,1.19.627,1.409,1.409,0,0,1,.122,1.336l-2.576,5.992,6.453,1.267a1.4,1.4,0,0,1,.9,2.179l-3.691,5.369,6.08,2.505a1.407,1.407,0,0,1,.461,2.314l-4.671,4.547,5.475,3.635a1.407,1.407,0,0,1,0,2.362l-5.473,3.548,4.669,4.648a1.407,1.407,0,0,1-.461,2.314l-6.061,2.413,3.672,5.456a1.407,1.407,0,0,1-.9,2.179l-6.412,1.194,2.534,6.063a1.413,1.413,0,0,1-.122,1.338,1.584,1.584,0,0,1-1.19.625l-6.52-.089,1.3,6.451a1.405,1.405,0,0,1-.382,1.286,1.425,1.425,0,0,1-1.286.38l-6.372-1.356.015,6.576a1.407,1.407,0,0,1-1.961,1.311l-5.988-2.576-1.271,6.453a1.4,1.4,0,0,1-2.179.9l-5.373-3.693-2.5,6.088a1.406,1.406,0,0,1-1.032.858,1.391,1.391,0,0,1-1.282-.4l-4.549-4.675-3.645,5.487A1.4,1.4,0,0,1,717.9,755.2Zm-4.773-8.956c.06,0,.26.01.32.017a2.823,2.823,0,0,1,2.087,1.294l2.368,3.653,2.374-3.658a2.819,2.819,0,0,1,2.127-1.292,2.867,2.867,0,0,1,2.331.848l3.039,3.124,1.606-4.044a2.873,2.873,0,0,1,4.306-1.3l3.581,2.459.795-4.275a2.877,2.877,0,0,1,1.458-2.009,2.92,2.92,0,0,1,2.493-.11l4,1.722-.06-4.354a2.858,2.858,0,0,1,1.036-2.25,2.893,2.893,0,0,1,2.441-.592l4.246.9-.9-4.256a2.832,2.832,0,0,1,.594-2.432,2.866,2.866,0,0,1,2.231-1.041l4.374.06-1.72-4a2.853,2.853,0,0,1,2.131-3.951l4.264-.794-2.464-3.583a2.87,2.87,0,0,1,1.294-4.295l4.05-1.612-3.116-3.035a2.876,2.876,0,0,1,.422-4.466L768.5,700.6l-3.652-2.366a2.9,2.9,0,0,1-1.294-2.119,2.861,2.861,0,0,1,.868-2.353l3.109-3.028-4.046-1.61a2.883,2.883,0,0,1-1.687-1.853,2.851,2.851,0,0,1,.39-2.447l2.464-3.583-4.283-.793a2.868,2.868,0,0,1-2-1.444,2.907,2.907,0,0,1-.1-2.526l1.712-3.986-4.354.06a2.9,2.9,0,0,1-2.256-1.043,2.853,2.853,0,0,1-.588-2.432l.9-4.252-4.254.9a2.863,2.863,0,0,1-2.424-.584,2.9,2.9,0,0,1-1.045-2.276l.06-4.337-4,1.718a2.881,2.881,0,0,1-2.49-.1,2.915,2.915,0,0,1-1.468-2.013l-.795-4.283-3.589,2.467a2.878,2.878,0,0,1-4.287-1.273l-1.618-4.075-3.037,3.118a2.9,2.9,0,0,1-2.378.849,2.829,2.829,0,0,1-2.089-1.294L717.9,650l-2.366,3.654a2.86,2.86,0,0,1-2.125,1.29,2.8,2.8,0,0,1-2.343-.86l-3.032-3.113-1.614,4.05a2.87,2.87,0,0,1-4.291,1.3l-3.587-2.466-.795,4.275a2.859,2.859,0,0,1-3.951,2.117l-4.009-1.72.066,4.353a2.864,2.864,0,0,1-3.471,2.846l-4.254-.906.9,4.256a2.87,2.87,0,0,1-2.81,3.471l-4.389-.06,1.72,4a2.863,2.863,0,0,1-2.133,3.957l-4.266.791,2.469,3.585a2.887,2.887,0,0,1-1.3,4.3l-4.046,1.612,3.118,3.035a2.853,2.853,0,0,1,.854,2.337,2.9,2.9,0,0,1-1.3,2.131l-3.641,2.362,3.651,2.372a2.878,2.878,0,0,1,.447,4.464l-3.126,3.043,4.042,1.61a2.886,2.886,0,0,1,1.307,4.291l-2.474,3.589,4.283.8a2.825,2.825,0,0,1,2.013,1.466,2.861,2.861,0,0,1,.1,2.482l-1.72,4,4.354-.06a2.921,2.921,0,0,1,2.256,1.055,2.862,2.862,0,0,1,.584,2.44l-.9,4.235,4.248-.9a2.854,2.854,0,0,1,2.411.567,2.926,2.926,0,0,1,1.066,2.274l-.066,4.356,4-1.72a2.859,2.859,0,0,1,2.482.1,2.894,2.894,0,0,1,1.475,2.011l.795,4.275,3.581-2.463a2.872,2.872,0,0,1,4.295,1.3l1.616,4.052,3.039-3.124A2.87,2.87,0,0,1,713.131,746.248Zm4.773-6.24a39.4,39.4,0,1,1,39.408-39.4A39.444,39.444,0,0,1,717.9,740.007Zm0-75.993A36.59,36.59,0,1,0,754.5,700.607,36.631,36.631,0,0,0,717.9,664.014Zm-410.28,72.653a86.536,86.536,0,0,1-29.872-5.529,1.4,1.4,0,0,1-.648-.241,117.117,117.117,0,0,1-22.771-11.683,1.409,1.409,0,0,1-.663-.374,1.549,1.549,0,0,1-.129-.148,152.237,152.237,0,0,1-19.117-15.1,1.387,1.387,0,0,1-.368-.266,1.526,1.526,0,0,1-.216-.276,135.4,135.4,0,0,1-13.372-14.228,1.422,1.422,0,0,1-.3-.841h0v-.031h0v-.035a1.415,1.415,0,0,1,.285-.816,126.412,126.412,0,0,1,13.947-15.14v0c15.891-14.928,41.495-32.72,73.228-32.72a48.769,48.769,0,0,1,48.69,47.3h28.055a1.407,1.407,0,1,1,0,2.814H356.313A48.77,48.77,0,0,1,307.623,736.667Zm-27.132-7.529a83.35,83.35,0,0,0,26.437,4.713l44.492-44.492H320.272Zm72.9-37.777L311.029,733.73A45.974,45.974,0,0,0,353.4,691.362Zm-96.464,26.2a113.337,113.337,0,0,0,20.642,10.514L316.3,689.36H285.143Zm-19.821-15.3a149.321,149.321,0,0,0,17.416,13.731l26.64-26.634h-31.15Zm-12.56-12.9a145.89,145.89,0,0,0,10.5,10.984l10.986-10.984Zm95.721-2.814h31.149l-44.488-44.486a85.853,85.853,0,0,0-26.605,4.549Zm-35.129,0H316.3l-38.907-38.9a109.152,109.152,0,0,0-20.719,10.425Zm-35.127,0h31.15l-26.9-26.9a141.17,141.17,0,0,0-17.343,13.8Zm-25.531,0H246.04l-11.158-11.162A136.883,136.883,0,0,0,224.485,686.546Zm86.549-44.364L353.4,684.545A45.971,45.971,0,0,0,311.035,642.182ZM717.9,733.25a32.644,32.644,0,1,1,32.651-32.643A32.681,32.681,0,0,1,717.9,733.25Zm0-62.474a29.83,29.83,0,1,0,29.837,29.831A29.864,29.864,0,0,0,717.9,670.775Zm4.514,45.878H716.4a1.407,1.407,0,0,1-1.406-1.406v-21.31h-3.938a1.408,1.408,0,0,1-1.408-1.406V687.19a1.408,1.408,0,0,1,1.408-1.406h11.364a1.408,1.408,0,0,1,1.408,1.406v28.057A1.408,1.408,0,0,1,722.418,716.654Zm-4.613-2.814h3.207V688.6h-8.553v2.526H716.4a1.408,1.408,0,0,1,1.408,1.408ZM430.636,708.7h-.01a10.416,10.416,0,0,1-7.4-3.068,12.245,12.245,0,0,1-3.082-8.154l-.006-50.763H419.2a1.408,1.408,0,0,1-1.406-1.408v-5.745a1.408,1.408,0,0,1,1.406-1.408h22.868a1.408,1.408,0,0,1,1.408,1.408v5.745a1.408,1.408,0,0,1-1.408,1.408h-.947v51.5A10.482,10.482,0,0,1,430.636,708.7ZM420.6,643.9h.943a1.407,1.407,0,0,1,1.406,1.406l.006,52.171a9.407,9.407,0,0,0,2.254,6.161,7.848,7.848,0,0,0,10.844,0,7.606,7.606,0,0,0,2.247-5.429v-3.157a1.423,1.423,0,0,1-.16.01h-3.074a1.407,1.407,0,0,1,0-2.814h3.074a1.409,1.409,0,0,1,.16.01v-5.917a1.423,1.423,0,0,1-.16.01h-3.074a1.407,1.407,0,0,1,0-2.814h3.074a1.432,1.432,0,0,1,.16.008v-5.93a1.423,1.423,0,0,1-.16.01h-3.074a1.407,1.407,0,0,1,0-2.814h3.074a1.423,1.423,0,0,1,.16.01v-5.917a1.438,1.438,0,0,1-.16.01h-3.074a1.407,1.407,0,0,1,0-2.814h3.074a1.447,1.447,0,0,1,.16.008V660.19a1.438,1.438,0,0,1-.16.01h-3.074a1.407,1.407,0,0,1,0-2.814h3.074a1.438,1.438,0,0,1,.16.01V645.31a1.408,1.408,0,0,1,1.408-1.406h.947v-2.933H420.6Zm148.58,64.189a6.242,6.242,0,0,1-6.26-6.25v-38.5l0-.05h0v-.017a1.443,1.443,0,0,1,.112-.492l4.84-12.086a1.371,1.371,0,0,1,.287-.447v0l0,0h0l0,0,0,0,0,0h0l0,0,0,0,0,0h0l0,0,0,0,0,0h0l.008-.008,0,0,0,0v0l.006,0,0-.006.006,0,.006-.006,0,0,0,0,0,0,0,0,0,0,0,0,0,0,0,0,0,0,0,0,.006,0,0,0,.006,0,.006-.006,0,0,.006-.006,0,0,.006,0,0,0,0,0,.006,0,0,0,.006,0,0,0,.006,0,0,0,0,0,.006,0h0a1.4,1.4,0,0,1,.8-.282h.008l.006,0h.069l.008,0h.019a1.389,1.389,0,0,1,.683.214h0l.006,0h0l0,0,0,0,0,0,0,0h0l0,0,.008,0,.006,0,.006,0,0,0a1.539,1.539,0,0,1,.185.15h0l.006.006h0l0,0,0,0,0,0,0,0,0,0,0,0,0,0,0,0h0a1.37,1.37,0,0,1,.309.478l4.819,12.076a1.382,1.382,0,0,1,.114.552v38.506a6.235,6.235,0,0,1-6.244,6.25Zm-3.446-10.89v4.64a3.443,3.443,0,0,0,1.014,2.441,3.544,3.544,0,0,0,4.858-.006,3.436,3.436,0,0,0,1-2.436V697.2Zm0-2.814h6.877v-2.812h-6.877Zm0-5.625h6.877V664.743h-6.877Zm.673-26.835h5.535l-1.227-3.07h-3.078ZM431.249,704.992a7.8,7.8,0,0,1-5.529-2.295,9.409,9.409,0,0,1-2.293-6.167l-.008-17.58a1.407,1.407,0,1,1,2.814,0l.008,17.58a6.7,6.7,0,0,0,1.466,4.177,4.977,4.977,0,0,0,7.064,0,1.406,1.406,0,0,1,1.988,1.988A7.789,7.789,0,0,1,431.249,704.992Zm202.516-17.069a6.392,6.392,0,0,1-4.536-1.876h0l-25.942-25.942a.971.971,0,0,1-.073-.077l-25.866-25.87a6.4,6.4,0,0,1,0-9.072L603.2,599.229a.913.913,0,0,1,.071-.077l25.936-25.934a6.379,6.379,0,0,1,4.544-1.884h.01a6.343,6.343,0,0,1,4.522,1.884l25.947,25.934a.891.891,0,0,1,.073.077L690.172,625.1a6.411,6.411,0,0,1,0,9.072l-25.938,25.942-.008.01L638.3,686.047A6.387,6.387,0,0,1,633.765,687.923Zm-2.548-3.865a3.613,3.613,0,0,0,5.093,0l24.943-24.941-7.857-7.851a1.418,1.418,0,0,1-.32-.492c-.185-.49-1.793-4.867-.613-7.826a1.4,1.4,0,0,1,1.79-.8,6.01,6.01,0,0,0,4.827-.316,5.811,5.811,0,0,0,1.406-1.038,5.946,5.946,0,0,0-5.093-10.086,5.926,5.926,0,0,0-4.665,7.9,1.409,1.409,0,0,1-.8,1.792,8.188,8.188,0,0,1-3.909.341,17.544,17.544,0,0,1-3.934-.968,1.414,1.414,0,0,1-.49-.318l-7.839-7.835-7.608,7.612a13.019,13.019,0,0,0-.758,4.295,8.742,8.742,0,0,1,7.629,14.8l0,0-.019.019a8.679,8.679,0,0,1-6.183,2.565h-.006a8.726,8.726,0,0,1-8.63-10.184,13.358,13.358,0,0,0-4.283.758l-7.625,7.627ZM624.5,657.637a5.972,5.972,0,0,0,6.51-1.279c.046-.048.094-.1.139-.145l.01-.01a5.93,5.93,0,0,0-6.383-9.612,1.408,1.408,0,0,1-1.792-.8c-1.174-2.958.432-7.332.621-7.822a1.385,1.385,0,0,1,.318-.492l7.843-7.843L624.132,622a14,14,0,0,0-3.834-.754c-.147-.006-.293,0-.436,0a8.707,8.707,0,0,1-7.642,10.121,9.438,9.438,0,0,1-1,.058h-.014a8.75,8.75,0,1,1,1.441-17.379,13.322,13.322,0,0,0-.76-4.295l-7.617-7.615-24.939,24.937,0,0a3.587,3.587,0,0,0,0,5.089l24.948,24.949,7.833-7.837a1.39,1.39,0,0,1,.28-.216,1.457,1.457,0,0,1,.233-.116c.49-.187,4.864-1.792,7.82-.613a1.4,1.4,0,0,1,.8,1.79,5.924,5.924,0,0,0,3.25,7.513ZM655.63,649.5l7.617,7.619,24.935-24.941,0,0a3.6,3.6,0,0,0,0-5.093l-24.941-24.945-7.847,7.845a1.437,1.437,0,0,1-.492.32,17.973,17.973,0,0,1-1.869.577c-1.662.418-4.094.785-5.965.04a1.4,1.4,0,0,1-.8-1.79,5.947,5.947,0,0,0-1.346-6.231l-.013-.013-.008-.008-.012-.012-.014-.012-.008-.01,0,0-.01-.012,0,0-.012-.012,0,0-.012-.012,0,0-.014-.012h0l-.014-.012h0c-.05-.05-.1-.094-.154-.143h0l-.016-.012h0l-.012-.012,0,0c0-.006-.016,0-.016-.013l-.011-.01-.006,0-.015-.014-.017-.015,0,0-.012-.008-.015-.013,0,0a5.971,5.971,0,0,0-7.959.318l-.052.052a.581.581,0,0,1-.05.048,5.935,5.935,0,0,0,6.291,9.719,1.41,1.41,0,0,1,1.792.806c1.165,2.953-.43,7.32-.617,7.808a1.338,1.338,0,0,1-.32.5l-7.845,7.847,7.631,7.629a14.49,14.49,0,0,0,3.321.729,7.227,7.227,0,0,0,.953.025,8.746,8.746,0,0,1,8.64-10.18h.006a8.75,8.75,0,0,1,4.434,16.3,8.793,8.793,0,0,1-5.868,1.082A13.1,13.1,0,0,0,655.63,649.5ZM611.211,616.75a5.933,5.933,0,0,0,.027,11.866h.042a5.935,5.935,0,0,0,5.51-7.976,1.406,1.406,0,0,1,.806-1.788,7.72,7.72,0,0,1,3.309-.391,17.337,17.337,0,0,1,4.524,1.018,1.417,1.417,0,0,1,.492.32l7.837,7.833,7.61-7.608a13.1,13.1,0,0,0,.762-4.293,8.742,8.742,0,0,1-7.668-14.764l.05-.05.058-.054a8.767,8.767,0,0,1,12.338.05l0,0h0a8.754,8.754,0,0,1,2.428,7.619,10.5,10.5,0,0,0,2.463-.258,15.811,15.811,0,0,0,1.813-.5l7.639-7.633L636.3,575.207l0,0a3.55,3.55,0,0,0-2.534-1.057h-.006a3.581,3.581,0,0,0-2.553,1.061L606.269,600.14,614.123,608a1.418,1.418,0,0,1,.32.492c.187.488,1.79,4.858.615,7.822a1.406,1.406,0,0,1-1.792.8A5.973,5.973,0,0,0,611.211,616.75Zm-32.871,9.334h0ZM389.9,669.724a1.448,1.448,0,0,1-.328-.037,1.409,1.409,0,0,1-1.043-1.7l.455-1.909h-4.711l-.611,2.561a1.406,1.406,0,1,1-2.735-.652l.455-1.909h-2.021a1.407,1.407,0,1,1,0-2.814h2.69l1.142-4.79h-1.7a1.407,1.407,0,0,1,0-2.814h2.37l.609-2.555a1.406,1.406,0,0,1,2.735.652l-.451,1.9h4.707l.611-2.555a1.406,1.406,0,0,1,2.735.652l-.453,1.9h2.015a1.407,1.407,0,1,1,0,2.814h-2.684l-1.14,4.79h1.7a1.407,1.407,0,0,1,0,2.814h-2.37l-.609,2.561A1.4,1.4,0,0,1,389.9,669.724Zm-4.958-6.455h4.711l1.142-4.79h-4.711Zm151.928,4.368a1.45,1.45,0,0,1-.328-.037,1.408,1.408,0,0,1-1.043-1.7l.453-1.9h-2.013a1.407,1.407,0,0,1,0-2.814h2.682l1.14-4.792h-1.7a1.407,1.407,0,1,1,0-2.814h2.362l.609-2.561a1.407,1.407,0,1,1,2.738.652l-.457,1.909h4.717l.609-2.561a1.406,1.406,0,0,1,2.735.652l-.453,1.909h2.017a1.407,1.407,0,1,1,0,2.814h-2.686l-1.142,4.792h1.7a1.407,1.407,0,0,1,0,2.814h-2.37l-.609,2.555a1.407,1.407,0,0,1-2.737-.652l.453-1.9h-4.711l-.606,2.555A1.407,1.407,0,0,1,536.865,667.638Zm2.642-6.449h4.713l1.14-4.792h-4.713ZM241.716,640.861H192.035a7.65,7.65,0,1,1,0-15.3H241.71a.279.279,0,0,1,.04,0h0l.012,0h.012a1.4,1.4,0,0,1,.494.112l15.6,6.235c.025.01.05.021.077.033h0l.006,0h0l.006,0,.006,0,.006,0,0,0,0,0h.008v0a.808.808,0,0,1,.081.044h0l.006,0h0l.006,0h0l.006,0,.008,0,.008,0,0,0a1.379,1.379,0,0,1,.442.447l0,0,0,0,0,0,0,0,0,.006,0,.006h0a1.393,1.393,0,0,1,.2.636h0v.008h0v.031l0,.008v.035h0v.033h0l0,.008v.006h0a1.413,1.413,0,0,1-.889,1.263l-15.592,6.223A1.442,1.442,0,0,1,241.716,640.861Zm-33.21-2.814h31.8v-9.673h-31.8Zm-7.253,0h4.439v-9.673h-4.439Zm-9.218-9.673a4.837,4.837,0,1,0,0,9.673h6.4v-9.673Zm51.087.671v8.333l4.779-1.907v-4.516Zm7.592,3.614v1.1l1.8-.546Zm127.55.773c-7.361,0-13.79-7.587-17.858-19.551-12.394,2.461-22.175.688-25.861-5.685s-.318-15.75,8.028-25.263q-1.571-1.8-2.926-3.606c-6.4-8.553-8.211-16.228-5.1-21.608s10.668-7.654,21.269-6.387q2.236.266,4.58.731c4.067-11.983,10.5-19.582,17.869-19.582s13.8,7.6,17.863,19.582c1.56-.309,3.091-.553,4.582-.731,10.614-1.271,18.16,1,21.263,6.387s1.3,13.056-5.1,21.608q-1.36,1.819-2.947,3.629,1.582,1.808,2.947,3.629c6.4,8.555,8.21,16.228,5.1,21.61s-10.661,7.66-21.263,6.387q-2.239-.266-4.582-.731C392.063,625.833,385.631,633.433,378.265,633.433Zm-15.021-20.177c3.635,10.539,9.07,17.364,15.021,17.364s11.391-6.838,15.023-17.391a91.15,91.15,0,0,1-15.015-5.145A90.462,90.462,0,0,1,363.244,613.255Zm33.737-2.1q2.074.4,4.061.636c9.286,1.109,16.026-.715,18.5-5s.685-11.035-4.916-18.519q-1.206-1.611-2.6-3.224a91.094,91.094,0,0,1-11.989,10.46A90.925,90.925,0,0,1,396.98,611.153ZM344.534,585.08c-7.324,8.424-10.529,16.554-7.552,21.711s11.609,6.445,22.548,4.32a90.915,90.915,0,0,1-3.037-15.6A91.113,91.113,0,0,1,344.534,585.08Zm37.19,21.412a85.232,85.232,0,0,0,12.425,4.052,87.217,87.217,0,0,0,2.733-12.807q-3.549,2.424-7.4,4.651Q385.587,604.636,381.724,606.492Zm-22.085-8.753a87.53,87.53,0,0,0,2.719,12.761,87.169,87.169,0,0,0,12.41-4.027c-2.582-1.242-5.168-2.607-7.729-4.084S362.006,599.353,359.64,597.739Zm-.449-3.747c2.908,2.085,6.007,4.085,9.255,5.959s6.53,3.564,9.795,5.039a109.928,109.928,0,0,0,9.835-5.039h0c3.249-1.874,6.349-3.874,9.259-5.959a110.227,110.227,0,0,0,0-22.065c-2.91-2.087-6.009-4.086-9.259-5.961h0c-3.257-1.882-6.545-3.572-9.816-5.049-3.269,1.477-6.557,3.167-9.814,5.049a108.306,108.306,0,0,0-9.259,5.984,110.018,110.018,0,0,0,0,22.042Zm-12.761-11a85.181,85.181,0,0,0,9.716,8.73c-.214-2.841-.324-5.768-.324-8.767,0-2.981.108-5.9.32-8.722A87.032,87.032,0,0,0,346.43,582.992Zm53.947-8.8c.214,2.841.324,5.766.324,8.761s-.11,5.926-.324,8.767a85.162,85.162,0,0,0,9.75-8.765A85.5,85.5,0,0,0,400.376,574.194Zm-.347-3.786a91.225,91.225,0,0,1,11.989,10.458q1.394-1.605,2.6-3.224c5.6-7.482,7.392-14.232,4.916-18.515s-9.2-6.109-18.5-5c-1.323.156-2.679.372-4.061.636A90.761,90.761,0,0,1,400.029,570.409Zm-49.6-16.6c-6.661,0-11.449,1.855-13.449,5.319-2.474,4.285-.681,11.035,4.92,18.517q1.2,1.605,2.584,3.2a90.732,90.732,0,0,1,12.009-10.45,90.965,90.965,0,0,1,3.045-15.634c-1.379-.266-2.735-.48-4.056-.636A42.91,42.91,0,0,0,350.431,553.806Zm39.049,9.721q3.844,2.222,7.4,4.65a87.021,87.021,0,0,0-2.731-12.8,85.331,85.331,0,0,0-12.433,4.054c2.594,1.246,5.189,2.617,7.762,4.1Zm-27.108-8.155a86.86,86.86,0,0,0-2.731,12.8q3.515-2.4,7.4-4.642c2.573-1.485,5.17-2.856,7.764-4.1A85.312,85.312,0,0,0,362.372,555.372Zm.862-2.686a91,91,0,0,1,15.025,5.153,91.112,91.112,0,0,1,15.03-5.153c-3.633-10.554-9.07-17.391-15.025-17.391S366.869,542.133,363.234,552.686ZM780.847,617.8H740.4a1.408,1.408,0,0,1-1.408-1.408v-4.665a1.408,1.408,0,0,1,1.408-1.406h1.277c.476-14.595,8.582-22.44,16.8-29.748-8.206-7.292-16.307-15.109-16.8-29.612H740.4a1.408,1.408,0,0,1-1.408-1.406V544.9a1.408,1.408,0,0,1,1.408-1.406h40.451a1.408,1.408,0,0,1,1.408,1.406v4.663a1.408,1.408,0,0,1-1.408,1.406H779.57c-.492,14.5-8.6,22.324-16.8,29.615,8.221,7.305,16.33,15.142,16.8,29.745h1.275a1.408,1.408,0,0,1,1.408,1.406V616.4A1.408,1.408,0,0,1,780.847,617.8ZM741.8,614.991h37.64v-1.851H741.8Zm18.816-4.709h16.137c-.5-13.461-7.982-20.571-16.134-27.8-8.152,7.23-15.632,14.34-16.132,27.8Zm-16.128-59.316c.5,13.4,7.988,20.486,16.128,27.71,8.148-7.222,15.632-14.311,16.137-27.71Zm34.047-2.814h.9V546.3H741.8v1.849h.906a1.479,1.479,0,0,1,.349-.042h35.131A1.48,1.48,0,0,1,778.536,548.152Zm46.013,64.565a1.408,1.408,0,0,1-1.406-1.408V596.437a27.543,27.543,0,0,1-26.1-27.475c0-27.743,25.386-47.619,26.64-48.584a1.4,1.4,0,0,1,.82-.3h0l.011,0h.037a.43.43,0,0,0,.048,0h0a1.387,1.387,0,0,1,.8.285,71.187,71.187,0,0,1,8.427,7.768c8.312,8.85,18.22,23.12,18.22,40.827a27.543,27.543,0,0,1-26.094,27.475v14.872A1.408,1.408,0,0,1,824.549,612.717Zm-24.436-40.158A24.758,24.758,0,0,0,820.955,593.4Zm48.861.01L828.146,593.4A24.75,24.75,0,0,0,848.975,572.568ZM825.957,576.2v15.4l23.277-23.277a46.558,46.558,0,0,0-2.16-13.252Zm-26.1-7.88,23.284,23.284V576.2L802.1,555.162A45.086,45.086,0,0,0,799.859,568.324Zm3.286-16.095,20,20v-15.4L808.319,542A61.782,61.782,0,0,0,803.145,552.229Zm22.812,4.6v15.4l20.095-20.1a59.689,59.689,0,0,0-5.13-10.267Zm-16.066-17.233,13.252,13.254v-15.4l-6.468-6.468A81.724,81.724,0,0,0,809.891,539.592Zm16.066-2.15v15.4l13.4-13.4a77.28,77.28,0,0,0-6.823-8.58Zm-7.365-8.53,4.551,4.551v-8.944C821.954,525.578,820.372,527.059,818.592,528.912Zm7.365-4.459v9.01l4.64-4.64C828.784,526.972,827.166,525.5,825.957,524.453ZM287.006,611.73a1.424,1.424,0,0,1-1.394-1.084l-4.306-15.194,0-.013,0-.013-1.834-6.47,0-.008,0-.008L256.914,509.4l-.015-.052-.015-.052-6.717-23.7c-.015-.039-.027-.077-.039-.116s-.021-.081-.031-.122l-1.417-5.008v128.63a1.454,1.454,0,0,1-1.433,1.433H222.522a.142.142,0,0,0-.029,0H162.578a1.453,1.453,0,0,1-1.433-1.433V470.291a1.454,1.454,0,0,1,1.433-1.435h32a1.458,1.458,0,0,1,1.437,1.435v5.735h25.068v-2.681a1.456,1.456,0,0,1,1.435-1.435h24.725a1.456,1.456,0,0,1,1.433,1.435v2.177a1.465,1.465,0,0,1,.154-.05l27.81-7.88a1.5,1.5,0,0,1,1.038.1,1.458,1.458,0,0,1,.735.887L311.9,586.7c.006.019.014.039.017.058l.017.06,4.3,15.192a.19.19,0,0,1,.012.044,1.453,1.453,0,0,1-1.043,1.739l-27.812,7.884A1.528,1.528,0,0,1,287.006,611.73Zm-.615-8.651,1.562,5.519,25.2-7.145-1.564-5.515ZM223.9,607.6h21.965V474.724H223.9Zm-27.882,0h25.068V596.767H196.019Zm-32.061,0h29.247V587.78H163.959Zm120.432-11.571,1.23,4.349,25.207-7.143-1.234-4.351Zm-88.372-2.071h25.068v-11.5H196.019Zm86.532-4.42,1.072,3.784,25.2-7.145-1.074-3.786Zm-2.933-10.348,2.166,7.641,25.2-7.145-2.168-7.641Zm-115.659,5.782h29.247v-7.937H163.959Zm32.061-5.326h25.068v-100.8H196.019Zm63.967-69.71,18.864,66.549,25.2-7.145-18.864-66.547Zm-96.028,64.285h29.247V505.049H163.959Zm93.1-74.622,2.162,7.631,25.2-7.143-2.164-7.635Zm-93.1,2.642h29.247V494.3H163.959Zm91.262-9.126,1.068,3.776,25.2-7.147-1.072-3.774Zm-91.262-1.626h29.247V471.669H163.959Zm89.265-5.427,1.228,4.345,25.2-7.143-1.232-4.345Zm-2.337-8.242,1.568,5.537,25.2-7.143-1.572-5.539Zm-11.634,113.7h-8.744a1.457,1.457,0,0,1-1.435-1.435v-97.85a1.457,1.457,0,0,1,1.435-1.435h8.744a1.458,1.458,0,0,1,1.437,1.435v97.85A1.458,1.458,0,0,1,239.252,591.518Zm-7.365-2.814h5.988V493.611h-5.988Zm450.593-.056a4.442,4.442,0,0,1-4.023-2.565l-31.332-66.418a4.472,4.472,0,0,1,5.77-6.032l.014.006h0l.017.008.012.006.014.006.015.006.013.006.014.008.014,0,.015.006.015.008.014.006.013.008.014.006v0L719.3,544.953a4.313,4.313,0,0,1,1.444.953,4.47,4.47,0,0,1,.094,6.252c-.029.033-.058.068-.091.1a4.509,4.509,0,0,1-2.42,1.24L691.4,557.984l-4.486,26.931a4.509,4.509,0,0,1-4.433,3.734Zm-32.732-70.019L681,584.882a1.662,1.662,0,0,0,3.141-.438l4.488-26.933Zm1.45-2.528,39.2,39.2,27.471-4.58a1.722,1.722,0,0,0,.854-.418l.048-.05a1.657,1.657,0,0,0,0-2.345,1.711,1.711,0,0,0-.567-.368l-66.322-31.282,0,0A1.675,1.675,0,0,0,651.2,516.1Zm-320.005,15.43a1.407,1.407,0,0,1-1.406-1.406V511.641a33.351,33.351,0,0,1-31.91-33.278c0-33.787,30.958-58,32.448-59.152a1.406,1.406,0,0,1,.808-.3h.006a.48.48,0,0,1,.118,0h.012a1.4,1.4,0,0,1,.775.283,85.624,85.624,0,0,1,10.267,9.467h0c10.122,10.776,22.191,28.146,22.191,49.7a33.348,33.348,0,0,1-31.9,33.278v18.484A1.408,1.408,0,0,1,331.193,531.531Zm-30.3-49.652a30.56,30.56,0,0,0,26.777,26.777Zm60.594.006-26.767,26.771A30.56,30.56,0,0,0,361.485,481.885ZM300.694,477.7,329.787,506.8V487.08L303.612,460.9A55.58,55.58,0,0,0,300.694,477.7ZM332.6,487.08V506.8l29.083-29.087a57.344,57.344,0,0,0-2.81-16.9Zm-27.94-29.1L329.787,483.1V463.389L311.3,444.9A75.986,75.986,0,0,0,304.661,457.979Zm27.94,5.409V483.1l25.244-25.245a73.035,73.035,0,0,0-6.582-13.131Zm0-23.689v19.713l17.092-17.094a95.044,95.044,0,0,0-8.732-10.979Zm-19.732,2.792,16.918,16.92V439.7l-8.231-8.235A100.031,100.031,0,0,0,312.869,442.492ZM332.6,423.267v12.456l6.426-6.426C336.444,426.642,334.17,424.6,332.6,423.267Zm-9.127,6.136,6.314,6.318v-12.39C328.24,424.688,326.015,426.74,323.473,429.4Zm79.455,90.485a1.408,1.408,0,0,1-1.408-1.406v-1a1.407,1.407,0,0,1,2.814,0v1A1.407,1.407,0,0,1,402.928,519.889Zm0-5.647a1.409,1.409,0,0,1-1.408-1.408v-2.5a1.409,1.409,0,0,1,1.215-1.394c.158-.023,1.643-.287,1.643-1.431a1.477,1.477,0,0,0-.509-1.315c-1.012-.775-3.419-.467-4.424-.2a1.406,1.406,0,1,1-.731-2.715c.453-.123,4.493-1.14,6.865.681a4.242,4.242,0,0,1,1.612,3.548,4.142,4.142,0,0,1-2.858,3.892v1.433A1.409,1.409,0,0,1,402.928,514.242Zm357.159-.193a1.406,1.406,0,0,1-1-.413l-9.208-9.206a1.407,1.407,0,0,1-.365-1.358l2.27-8.468a2372.983,2372.983,0,0,0,4.474-10.236,4.4,4.4,0,0,0,4.239-4.245,4.418,4.418,0,0,1,5.162-.789c10.107-10.551,11.071-19.971,12.093-29.93,1.047-10.236,2.131-20.82,13.669-32.36a38.971,38.971,0,0,1,55.046-.017l.008.01a38.976,38.976,0,0,1,0,55.054c-11.54,11.54-22.127,12.626-32.365,13.673-9.959,1.02-19.379,1.984-29.924,12.093a4.417,4.417,0,0,1-.8,5.153h0a4.387,4.387,0,0,0-4.237,4.241l-.008.008A4.4,4.4,0,0,0,774.9,511.5l0,0a4.409,4.409,0,0,1-5.986.224L760.451,514A1.469,1.469,0,0,1,760.087,514.049Zm-7.641-11.035,8.059,8.059,6.1-1.637-12.521-12.521Zm21.462,7.5h0Zm-3.545-1.292.3.3a1.589,1.589,0,0,0,2.25,0,1.606,1.606,0,0,0,.006-2.262l-16.656-16.645a1.57,1.57,0,0,0-1.126-.472h0a1.6,1.6,0,0,0-1.13,2.725l.264.262a1.454,1.454,0,0,1,.154.154l15.846,15.846C770.3,509.155,770.333,509.184,770.363,509.219Zm7.791-2.954h0Zm-3.246-1a1.562,1.562,0,0,0,1.119.467h0a1.593,1.593,0,0,0,1.132-2.717L760.5,486.36a1.568,1.568,0,0,0-1.124-.471h0a1.582,1.582,0,0,0-1.126.469,1.605,1.605,0,0,0,0,2.264Zm4.239-4.241a1.6,1.6,0,0,0,2.25,0l0,0a1.592,1.592,0,0,0,.006-2.254l-8.373-8.371h0l-8.211-8.211-.044-.044-.027-.029a1.6,1.6,0,1,0-2.256,2.26Zm-3.026-11.521,6.227,6.219c11.21-10.684,21.51-11.739,31.478-12.759,10.2-1.045,19.83-2.033,30.664-12.865a36.109,36.109,0,0,0-35.3-60.3h0l-.052.015a35.893,35.893,0,0,0-15.391,8.886l-.332.328c-10.83,10.832-11.816,20.463-12.861,30.659-1.02,9.97-2.073,20.27-12.761,31.486Zm-171.729,19.4a1.476,1.476,0,0,1-.328-.039,1.41,1.41,0,0,1-1.043-1.7l.455-1.9h-2.011a1.407,1.407,0,1,1,0-2.814h2.679l1.14-4.79H603.59a1.407,1.407,0,0,1,0-2.814h2.362l.608-2.561a1.423,1.423,0,0,1,1.7-1.043,1.407,1.407,0,0,1,1.043,1.7l-.455,1.909h4.719l.611-2.561a1.406,1.406,0,0,1,2.735.652l-.453,1.909h2.011a1.407,1.407,0,1,1,0,2.814h-2.682l-1.14,4.79h1.7a1.407,1.407,0,1,1,0,2.814h-2.37l-.609,2.553a1.406,1.406,0,0,1-2.735-.652l.451-1.9h-4.713l-.607,2.553A1.409,1.409,0,0,1,604.392,508.906Zm2.642-6.449h4.717l1.14-4.79h-4.717Zm69.353-5.934c-16.743,0-33.692-3.483-33.692-10.136V471.776l-31.638-15.185a1.418,1.418,0,0,1-.336-.214l0,0-.008-.008v0a1.121,1.121,0,0,1-.1-.093h0l0-.006,0,0,0,0a1.4,1.4,0,0,1-.374-.922v-.033h0v-3.921a1.405,1.405,0,0,1,.8-1.271L675.79,419.35a1.417,1.417,0,0,1,1.205,0l64.764,30.767a1.405,1.405,0,0,1,.8,1.271v3.921h0v.031a1.415,1.415,0,0,1-.345.891l0,0h0a1.233,1.233,0,0,1-.16.158l0,0,0,0a1.4,1.4,0,0,1-.31.195l-9.729,4.669v23.973a4.076,4.076,0,1,1-2.814,0V462.608l-19.1,9.168v14.612C710.093,493.041,693.138,496.523,676.388,496.523Zm0-17.454c-18.851,0-30.879,4.333-30.879,7.318s12.028,7.322,30.879,7.322,30.892-4.337,30.892-7.322S695.246,479.069,676.388,479.069ZM730.6,487.8a1.259,1.259,0,1,0,1.263,1.263A1.264,1.264,0,0,0,730.6,487.8Zm-54.213-11.54c12.637,0,25.39,1.982,30.892,5.81V471.06a1.343,1.343,0,0,1,0-.33V455.468c0-2.985-12.034-7.322-30.892-7.322s-30.879,4.337-30.879,7.322v26.6C651.007,478.238,663.756,476.255,676.388,476.255ZM614.9,455.316,642.7,468.655V455.468c0-6.653,16.949-10.136,33.692-10.136s33.706,3.483,33.706,10.136v13.187l27.8-13.341-61.5-29.208Zm61.491-32.174a1.4,1.4,0,0,1,.6.137l62.754,29.806v-.808l-63.358-30.1-63.346,30.1v.806l62.745-29.8A1.4,1.4,0,0,1,676.391,423.142ZM450.5,378.756h-34.1A1.408,1.408,0,0,1,415,377.348v-3.934a1.408,1.408,0,0,1,1.408-1.406h.862c.467-12.151,7.184-18.75,14.043-24.864-6.85-6.1-13.557-12.668-14.041-24.74h-.864A1.408,1.408,0,0,1,415,321v-3.934a1.408,1.408,0,0,1,1.408-1.406h34.1a1.408,1.408,0,0,1,1.408,1.406V321A1.408,1.408,0,0,1,450.5,322.4h-.86c-.484,12.074-7.193,18.646-14.045,24.744,6.863,6.1,13.58,12.7,14.047,24.86h.858a1.408,1.408,0,0,1,1.408,1.406v3.934A1.408,1.408,0,0,1,450.5,378.756Zm-32.691-2.814H449.1v-1.12H417.812Zm15.642-3.978h13.372c-.5-11.027-6.64-16.942-13.368-22.918-6.73,5.976-12.874,11.891-13.37,22.918ZM420.087,322.4c.5,10.975,6.645,16.87,13.366,22.843,6.727-5.967,12.876-11.868,13.372-22.843Zm28.5-2.814h.509v-1.12H417.812v1.12h.513a1.382,1.382,0,0,1,.324-.039h29.615A1.37,1.37,0,0,1,448.588,319.591ZM241.182,376.5a7.644,7.644,0,0,1-7.658-7.654V319.182c0-.029,0-.056,0-.085v-.006l0,0a1.377,1.377,0,0,1,.108-.465l6.24-15.594a1.419,1.419,0,0,1,.345-.511h0l.006,0h0l0,0h0l0,0h0l0,0h0a1.392,1.392,0,0,1,.872-.361h.029l.006,0h.068l.008,0h.006a1.407,1.407,0,0,1,1.265.9l6.223,15.58a1.37,1.37,0,0,1,.11.511l0,0v.029h0v49.683a7.625,7.625,0,0,1-7.648,7.654Zm-4.844-14.053v6.4a4.834,4.834,0,0,0,1.423,3.437,4.987,4.987,0,0,0,6.848-.006,4.839,4.839,0,0,0,1.408-3.431v-6.4Zm0-2.814h9.679V355.2h-9.679Zm0-7.253h9.679v-31.8h-9.679Zm.669-34.614h8.343l-1.909-4.775h-4.52Zm3.616-7.589h1.1l-.548-1.807Zm572.04,58.652a1.484,1.484,0,0,1-.735-.195,1.45,1.45,0,0,1-.675-.885l-4.568-16.122-.012-.039-.011-.042-11.38-40.158-.01-.037-.012-.037-1.3-4.582v60a1.459,1.459,0,0,1-1.437,1.437H749.752a1.458,1.458,0,0,1-1.435-1.437V296.667a1.457,1.457,0,0,1,1.435-1.435H765.9a1.456,1.456,0,0,1,1.435,1.435v2.189h11.285v-.646a1.456,1.456,0,0,1,1.433-1.435h12.471a1.459,1.459,0,0,1,1.437,1.435v.16l13.241-3.747a1.433,1.433,0,0,1,1.734.879l3.136,11.056.008.031.008.031,11.38,40.139c.008.021.013.042.019.064l.017.068,1.441,5.083c.008.025.017.05.023.075l.021.077.891,3.145c.008.021.013.04.019.062s.012.044.015.064l2.166,7.635h0a1.435,1.435,0,0,1-.985,1.774l-14.058,3.978A1.419,1.419,0,0,1,812.662,368.832Zm.521-4.578.411,1.45,11.4-3.23-.413-1.454Zm-31.748,1.105h9.714v-65.77h-9.714Zm-14.1,0h11.285v-4.081H767.336Zm-16.2,0h13.391v-8.624H751.131Zm61.042-4.671.243.86,11.4-3.234-.243-.86Zm-44.837-2.224h11.285v-4.422H767.336Zm43.905-1.065.164.581,11.4-3.234-.164-.577Zm-1.481-5.224.715,2.519,11.4-3.232-.715-2.519Zm-58.629,1.745h13.391V351.3H751.131Zm16.2-2.692h11.285V301.67H767.336Zm32.5-34.064,9.154,32.306,11.4-3.234-9.154-32.3Zm-48.709,31.322h13.391V314.916H751.131Zm47.228-36.546.714,2.519,11.4-3.228-.715-2.522Zm-47.228.162h13.391v-2.621H751.131Zm46.3-3.44.162.573,11.4-3.232-.162-.571Zm-46.3-1.994h13.391v-8.622H751.131Zm45.29-1.57.243.858,11.4-3.23-.241-.854Zm-1.182-4.167.417,1.462,11.4-3.226-.417-1.471Zm-6.757,57.694h-4.387a1.454,1.454,0,0,1-1.435-1.433V307.756a1.454,1.454,0,0,1,1.435-1.433h4.387a1.454,1.454,0,0,1,1.435,1.433v49.436A1.454,1.454,0,0,1,788.481,358.625Zm-3.008-2.814h1.63V309.137h-1.63Zm-164.7-6.555a1.408,1.408,0,0,1-1.406-1.408V299.28a1.408,1.408,0,0,1,1.406-1.408h81.242a1.408,1.408,0,0,1,1.408,1.408v48.534a1.407,1.407,0,0,1-2.814,0V300.686H622.182v47.162A1.408,1.408,0,0,1,620.775,349.256Zm-95.141-.642h-.01a8.606,8.606,0,0,1-6.117-2.538,10.126,10.126,0,0,1-2.54-6.713l0-40.264H516.5a1.408,1.408,0,0,1-1.406-1.408V293.1a1.408,1.408,0,0,1,1.406-1.408h18.261a1.408,1.408,0,0,1,1.406,1.408v4.59a1.408,1.408,0,0,1-1.406,1.408h-.471v40.853a8.658,8.658,0,0,1-8.653,8.663Zm-5.652-7.594a6.5,6.5,0,0,0,1.516,3.07,5.966,5.966,0,0,0,6,1.41,6.746,6.746,0,0,1-1.373.148,6.534,6.534,0,0,1-4.615-1.909A6.635,6.635,0,0,1,519.982,341.02Zm1.009-17.863a1.407,1.407,0,0,1,1.408,1.406L522.4,338.6a5.161,5.161,0,0,0,1.089,3.143,3.706,3.706,0,0,0,5.247,0,1.4,1.4,0,0,1,2.287.451,5.828,5.828,0,0,0,.445-2.245v-2.225h-2.3a1.407,1.407,0,0,1,0-2.814h2.3v-4.152h-2.3a1.407,1.407,0,0,1,0-2.814h2.3v-4.154h-2.3a1.407,1.407,0,0,1,0-2.814h2.3v-4.152h-2.3a1.407,1.407,0,0,1,0-2.814h2.3v-4.146h-2.3a1.407,1.407,0,0,1,0-2.814h2.3v-9.363a1.407,1.407,0,0,1,1.406-1.406h.471v-1.778H517.9v1.778h.467a1.407,1.407,0,0,1,1.406,1.406l0,26.156A1.408,1.408,0,0,1,520.99,323.157ZM692.544,338.7h-64.3a1.407,1.407,0,0,1,0-2.814h64.3a1.407,1.407,0,1,1,0,2.814Zm0-8.639h-64.3a1.407,1.407,0,0,1,0-2.814h64.3a1.407,1.407,0,1,1,0,2.814Zm-139.275-9.6a1.422,1.422,0,0,1-.32-.037,1.4,1.4,0,0,1-1.049-1.687l.442-1.909-2.017.013h-.008a1.407,1.407,0,0,1-.008-2.814l2.686-.015,1.115-4.8-1.7.012H552.4a1.407,1.407,0,0,1-.008-2.814l2.372-.013.6-2.565a1.406,1.406,0,1,1,2.738.636l-.442,1.911,4.711-.027.6-2.559a1.406,1.406,0,1,1,2.738.636l-.442,1.905,2.013-.014h.008a1.407,1.407,0,0,1,.008,2.814l-2.682.015-1.115,4.8,1.7-.012h.008a1.407,1.407,0,0,1,.008,2.814l-2.368.013-.594,2.563a1.406,1.406,0,0,1-2.739-.636l.442-1.909-4.715.029-.6,2.561A1.4,1.4,0,0,1,553.269,320.465ZM557,309.2l-1.113,4.8,4.713-.029,1.113-4.8Zm-74.394-11.617a5.7,5.7,0,0,1-4.056-1.682l-22.409-22.4c-.027-.029-.056-.06-.083-.091l-22.326-22.326a5.736,5.736,0,0,1,0-8.111h0l44.806-44.806a5.871,5.871,0,0,1,8.111,0L509,220.516c.023.019.044.039.066.06l22.4,22.411a5.72,5.72,0,0,1,0,8.1l-22.355,22.366-.042.046L486.66,295.9A5.7,5.7,0,0,1,482.606,297.583Zm-23.481-25.078,21.416,21.408h0a2.983,2.983,0,0,0,4.131,0l21.408-21.4-6.649-6.649a1.435,1.435,0,0,1-.32-.494c-.164-.43-1.572-4.279-.532-6.9a1.413,1.413,0,0,1,1.793-.8,4.946,4.946,0,0,0,5.172-1.111h0l.012-.012a4.941,4.941,0,1,0-8.119-1.813,1.406,1.406,0,0,1-.8,1.788,8.508,8.508,0,0,1-4.648.11,15.841,15.841,0,0,1-2.264-.646,1.483,1.483,0,0,1-.492-.32l-6.63-6.638-6.408,6.406a11.406,11.406,0,0,0-.636,3.386,7.75,7.75,0,1,1,1.047,15.43H476.6a7.74,7.74,0,0,1-7.675-8.8h-.008a11.424,11.424,0,0,0-3.369.634Zm13.972-2.517a4.921,4.921,0,0,0,3.5,1.448h0A4.939,4.939,0,0,0,480.084,263a4.953,4.953,0,0,0-4.869-1.236c-.1.029-.2.062-.293.1l-.087.029a1.414,1.414,0,0,1-1.724-.829c-1.03-2.619.376-6.46.54-6.89a1.444,1.444,0,0,1,.32-.494l6.638-6.638-6.428-6.422a11.513,11.513,0,0,0-3.365-.634,7.732,7.732,0,0,1-7.669,8.8h0a7.752,7.752,0,1,1,1.036-15.432,11.782,11.782,0,0,0-.633-3.379l-6.414-6.416-21.41,21.4a2.919,2.919,0,0,0,0,4.129l21.418,21.417,6.636-6.638c.033-.031.068-.064.1-.091a1.421,1.421,0,0,1,.4-.239c.428-.162,4.264-1.572,6.9-.525a1.409,1.409,0,0,1,.8,1.792A4.947,4.947,0,0,0,473.1,269.989Zm28.562-5.9,6.416,6.422,21.4-21.416,0,0a2.91,2.91,0,0,0,0-4.119l-21.414-21.419-6.64,6.638h0l-.01.01a1.4,1.4,0,0,1-.494.32c-.428.164-4.273,1.577-6.9.532a1.4,1.4,0,0,1-.8-1.792,4.925,4.925,0,1,0-3.089,2.995l.145-.052.048-.015a1.405,1.405,0,0,1,1.761.812c1.039,2.619-.368,6.464-.532,6.894a1.435,1.435,0,0,1-.32.494l-6.642,6.64,6.426,6.426a13.025,13.025,0,0,0,1.587.428,9.246,9.246,0,0,0,1.77.2h.006a7.731,7.731,0,0,1,7.669-8.8h.006a7.749,7.749,0,1,1-1.036,15.426A11.454,11.454,0,0,0,501.659,264.094Zm-40.372-18.479a4.935,4.935,0,0,0,1.842.351h.006a4.925,4.925,0,0,0,4.626-6.626,1.4,1.4,0,0,1,.806-1.793,5.968,5.968,0,0,1,2.426-.372,14.755,14.755,0,0,1,4.484.91,1.417,1.417,0,0,1,.492.32l6.63,6.638,6.41-6.408a11.419,11.419,0,0,0,.636-3.383,7.748,7.748,0,1,1-1.036-15.426h.006a7.734,7.734,0,0,1,7.666,8.8,11.465,11.465,0,0,0,3.379-.636l6.416-6.418L484.66,200.156l0,0a2.993,2.993,0,0,0-4.129,0l-21.4,21.41,6.647,6.644a1.373,1.373,0,0,1,.32.494c.164.432,1.57,4.279.532,6.9a1.414,1.414,0,0,1-1.792.8,4.937,4.937,0,0,0-3.547,9.214Zm138.718,50.46h0a2.883,2.883,0,0,1-2-.8l-.052-.05a2.957,2.957,0,0,1-.808-1.552l-2.11-12.685-12.66-2.108a2.918,2.918,0,0,1-2.4-2.468,2.878,2.878,0,0,1,1.639-3.02l32.473-15.316a2.905,2.905,0,0,1,3.288.563l0,0a2.911,2.911,0,0,1,.611,3.213.571.571,0,0,0-.035.079l0,0-15.271,32.381a2.7,2.7,0,0,1-.619.912A2.884,2.884,0,0,1,600.005,296.075Zm-.06-2.837c.012-.035.172-.1.187-.127l13.734-29.126-16.13,16.133,2.175,13.063-.013.012ZM611.173,262.7l-28.364,13.225,12.844,2.3ZM438.111,293.568a1.408,1.408,0,0,1-1.408-1.408v-1a1.407,1.407,0,1,1,2.814,0v1A1.408,1.408,0,0,1,438.111,293.568Zm0-5.648a1.408,1.408,0,0,1-1.408-1.406v-2.5a1.407,1.407,0,0,1,1.215-1.394c.16-.025,1.653-.287,1.653-1.429a1.481,1.481,0,0,0-.509-1.317c-1.009-.769-3.411-.465-4.422-.193a1.407,1.407,0,0,1-.731-2.717c.451-.122,4.49-1.144,6.863.679a4.242,4.242,0,0,1,1.612,3.548,4.133,4.133,0,0,1-2.868,3.888v1.435A1.407,1.407,0,0,1,438.111,287.92ZM673.348,271.3c-7.1,0-13.3-7.305-17.229-18.826-11.939,2.36-21.364.642-24.912-5.5-3.006-5.2-1.261-12.616,4.914-20.872q1.3-1.736,2.81-3.462-1.51-1.727-2.81-3.462c-6.175-8.258-7.92-15.669-4.914-20.874,3.548-6.146,12.979-7.866,24.91-5.506,3.93-11.521,10.13-18.828,17.231-18.828s13.3,7.3,17.233,18.828c11.943-2.366,21.365-.642,24.918,5.506s.322,15.175-7.691,24.335c8.013,9.16,11.237,18.182,7.691,24.333s-12.98,7.868-24.92,5.5C686.653,263.991,680.451,271.3,673.348,271.3Zm-14.4-19.451c3.49,10.1,8.7,16.637,14.4,16.637s10.909-6.539,14.4-16.635a87.564,87.564,0,0,1-14.4-4.956A87.445,87.445,0,0,1,658.95,251.846Zm32.5-2.137c10.491,2.031,18.754.791,21.607-4.146s-.21-12.718-7.209-20.789a87.522,87.522,0,0,1-11.492,9.989A87.648,87.648,0,0,1,691.455,249.709ZM640.84,224.726q-1.319,1.524-2.467,3.057c-5.378,7.191-7.1,13.671-4.73,17.78,2.848,4.933,11.114,6.169,21.6,4.146a87.459,87.459,0,0,1-2.906-14.957A87.88,87.88,0,0,1,640.84,224.726Zm36.008,20.554a83.814,83.814,0,0,0,11.783,3.816,84.065,84.065,0,0,0,2.584-12.111c-2.231,1.516-4.578,2.991-7.033,4.407h0C681.729,242.809,679.275,244.105,676.849,245.28Zm-21.364-8.3a83.714,83.714,0,0,0,2.584,12.117,84.232,84.232,0,0,0,11.783-3.816q-3.645-1.765-7.336-3.888Q658.866,239.286,655.485,236.979Zm-.453-3.745c2.794,2,5.77,3.921,8.888,5.72a104.654,104.654,0,0,0,9.428,4.831,104.408,104.408,0,0,0,9.43-4.831h0a104.63,104.63,0,0,0,8.892-5.743,106.3,106.3,0,0,0,0-21.151,104.5,104.5,0,0,0-8.894-5.745h0a104.443,104.443,0,0,0-9.43-4.833,104.689,104.689,0,0,0-9.428,4.833c-3.118,1.8-6.1,3.718-8.888,5.722a106.187,106.187,0,0,0,0,21.2Zm28.449,6.939h0Zm-40.748-17.537a82.278,82.278,0,0,0,9.259,8.329c-.2-2.7-.3-5.486-.3-8.333s.1-5.627.3-8.327A81.933,81.933,0,0,0,642.732,222.636Zm51.982-8.292c.2,2.686.3,5.456.3,8.289s-.1,5.606-.3,8.3a83.932,83.932,0,0,0,9.2-8.292A83.515,83.515,0,0,0,694.714,214.343Zm-48.329-19.717c-6.156,0-10.757,1.647-12.741,5.08-2.372,4.11-.648,10.589,4.73,17.782q1.146,1.53,2.467,3.057a87.865,87.865,0,0,1,11.5-10.028,87.519,87.519,0,0,1,2.906-14.959A47.124,47.124,0,0,0,646.385,194.627Zm47.978,15.881a87.469,87.469,0,0,1,11.49,9.987c7-8.069,10.057-15.85,7.209-20.789s-11.121-6.183-21.607-4.148A87.5,87.5,0,0,1,694.363,210.508Zm-36.3-14.338a84.03,84.03,0,0,0-2.584,12.12c2.249-1.531,4.6-3.006,7.033-4.412,2.453-1.415,4.906-2.713,7.336-3.89A84.2,84.2,0,0,0,658.067,196.169Zm26.115,7.708q3.685,2.126,7.035,4.407a83.924,83.924,0,0,0-2.586-12.115,83.932,83.932,0,0,0-11.785,3.818Q680.491,201.752,684.182,203.877Zm-25.234-10.458a87.476,87.476,0,0,1,14.4,4.956,87.515,87.515,0,0,1,14.4-4.958c-3.49-10.1-8.7-16.637-14.4-16.637S662.439,183.32,658.948,193.419Zm-68.115,42.206H541.374a1.408,1.408,0,0,1-1.406-1.408V228.51a1.407,1.407,0,0,1,1.406-1.406h1.857c.478-18.072,10.57-27.683,20.719-36.693-10.134-8.989-20.216-18.571-20.718-36.523h-1.859a1.407,1.407,0,0,1-1.406-1.406v-5.708a1.408,1.408,0,0,1,1.406-1.408h49.459a1.408,1.408,0,0,1,1.406,1.408v5.708a1.407,1.407,0,0,1-1.406,1.406h-1.861c-.5,17.954-10.583,27.535-20.717,36.525,10.151,9,20.241,18.608,20.719,36.691h1.859a1.407,1.407,0,0,1,1.406,1.406v5.708A1.408,1.408,0,0,1,590.833,235.626Zm-48.052-2.814h46.644v-2.895H542.782ZM566.1,227.05h20.058c-.509-16.92-9.889-25.72-20.054-34.732-10.169,9.012-19.547,17.811-20.058,34.732Zm-20.054-73.162c.515,16.847,9.9,25.614,20.054,34.618,10.157-9,19.545-17.773,20.058-34.618Zm41.931-2.814h1.448V148.18H542.782v2.895h1.448a1.439,1.439,0,0,1,.39-.054h42.966A1.452,1.452,0,0,1,587.977,151.074ZM426.2,221.654h-.008a10.45,10.45,0,0,1-7.407-3.068,12.3,12.3,0,0,1-3.074-8.155l-.008-50.763h-.941a1.407,1.407,0,0,1-1.406-1.406v-5.753a1.407,1.407,0,0,1,1.406-1.406h22.86a1.407,1.407,0,0,1,1.406,1.406v5.753a1.407,1.407,0,0,1-1.406,1.406h-.941v51.492A10.482,10.482,0,0,1,426.2,221.654Zm-10.03-64.8h.939a1.407,1.407,0,0,1,1.406,1.408l.01,52.169a9.481,9.481,0,0,0,2.249,6.167,7.865,7.865,0,0,0,10.85,0,7.653,7.653,0,0,0,2.245-5.434V208.01a1.441,1.441,0,0,1-.16.008h-3.08a1.406,1.406,0,1,1,0-2.812h3.08a1.441,1.441,0,0,1,.16.008V199.29a1.433,1.433,0,0,1-.16.01h-3.08a1.407,1.407,0,1,1,0-2.814h3.08a1.433,1.433,0,0,1,.16.01v-5.922a1.425,1.425,0,0,1-.16.01h-3.08a1.407,1.407,0,1,1,0-2.814h3.08a1.434,1.434,0,0,1,.16.008v-5.922a1.432,1.432,0,0,1-.16.01h-3.08a1.407,1.407,0,1,1,0-2.814h3.08a1.433,1.433,0,0,1,.16.01v-5.924a1.433,1.433,0,0,1-.16.01h-3.08a1.407,1.407,0,1,1,0-2.814h3.08a1.441,1.441,0,0,1,.16.008V158.262a1.409,1.409,0,0,1,1.408-1.408h.939v-2.937H416.171ZM426.8,217.936a7.76,7.76,0,0,1-5.521-2.285,9.467,9.467,0,0,1-2.289-6.177l-.006-17.574a1.407,1.407,0,0,1,2.814,0l.006,17.574a6.721,6.721,0,0,0,1.464,4.187,5.115,5.115,0,0,0,7.066,0,1.407,1.407,0,1,1,1.99,1.99A7.765,7.765,0,0,1,426.8,217.936Zm-38.943-29.151a1.408,1.408,0,0,1-1.406-1.408v-1a1.406,1.406,0,1,1,2.812,0v1A1.408,1.408,0,0,1,387.861,188.785Zm0-4.918a1.407,1.407,0,0,1-1.406-1.406v-8.927a1.406,1.406,0,1,1,2.812,0v8.927A1.407,1.407,0,0,1,387.861,183.868Z" transform="translate(0 0)"/><path class="a" d="M550.176,814.18a1.407,1.407,0,0,1-1-2.4l4.266-4.268-4.266-4.264a1.406,1.406,0,0,1,1.988-1.988l4.268,4.264,4.264-4.264a1.406,1.406,0,1,1,1.988,1.988l-4.264,4.264,4.27,4.268a1.406,1.406,0,0,1-1.988,1.988l-4.27-4.268-4.268,4.268A1.4,1.4,0,0,1,550.176,814.18Zm53.037,0a1.4,1.4,0,0,1-1-.413l-4.266-4.266-4.264,4.266a1.406,1.406,0,0,1-1.988-1.988l4.264-4.266-4.264-4.266a1.406,1.406,0,0,1,1.988-1.988l4.264,4.266,4.266-4.266a1.406,1.406,0,1,1,1.988,1.988l-4.264,4.266,4.264,4.266a1.407,1.407,0,0,1-.993,2.4Zm10.057-98.1a12.3,12.3,0,1,1,12.292-12.788,1.57,1.57,0,0,1,.01.164v.32a1.291,1.291,0,0,1-.017.212c-.193,3.253-2.169,5.731-4.657,5.731a4.173,4.173,0,0,1-3.352-1.855A6.363,6.363,0,1,1,619,703.17a1.391,1.391,0,0,1,.029.284c0,1.975.984,3.45,1.863,3.45.858,0,1.815-1.406,1.859-3.309a9.487,9.487,0,1,0-3.039,7.143,1.406,1.406,0,0,1,1.909,2.065A12.269,12.269,0,0,1,613.269,716.078Zm-.6-15.854a3.552,3.552,0,1,0,3.548,3.55A3.554,3.554,0,0,0,612.671,700.224Zm-232.1,11.382a1.4,1.4,0,0,1-.993-.411l-4.266-4.266-4.266,4.266a1.407,1.407,0,0,1-1.988-1.99l4.264-4.266-4.264-4.266a1.406,1.406,0,0,1,1.988-1.988l4.266,4.266,4.266-4.266a1.406,1.406,0,0,1,1.988,1.988l-4.266,4.266,4.266,4.266a1.406,1.406,0,0,1-1,2.4Zm147.5-16.93a1.4,1.4,0,0,1-1-.413L522.815,690l-4.266,4.266a1.406,1.406,0,0,1-1.988-1.988l4.266-4.268-4.266-4.266a1.406,1.406,0,0,1,1.988-1.988l4.266,4.266,4.264-4.266a1.406,1.406,0,1,1,1.988,1.988l-4.266,4.266,4.266,4.268a1.407,1.407,0,0,1-.993,2.4Zm259.019-16.729a12.3,12.3,0,1,1,12.292-12.786,1.59,1.59,0,0,1,.01.166v.324a1.321,1.321,0,0,1-.017.216c-.2,3.249-2.173,5.724-4.659,5.724a4.176,4.176,0,0,1-3.354-1.853,6.363,6.363,0,1,1,1.458-4.694,1.266,1.266,0,0,1,.029.284c0,1.977.985,3.45,1.867,3.45.858,0,1.817-1.4,1.861-3.305a9.473,9.473,0,1,0-3.039,7.143,1.406,1.406,0,0,1,1.909,2.063A12.266,12.266,0,0,1,787.093,677.946Zm-.6-15.846a3.55,3.55,0,1,0,3.548,3.55A3.553,3.553,0,0,0,786.489,662.1Zm-576.714,1.865a1.4,1.4,0,0,1-1-.413l-4.266-4.264-4.268,4.264a1.406,1.406,0,0,1-1.988-1.988l4.266-4.266-4.266-4.266a1.406,1.406,0,1,1,1.988-1.988l4.268,4.266,4.266-4.266a1.407,1.407,0,0,1,1.99,1.988L206.5,657.3l4.266,4.266a1.407,1.407,0,0,1-1,2.4Zm592.464-22.251a1.408,1.408,0,0,1-1.408-1.406v-6.032H794.8a1.407,1.407,0,0,1,0-2.814h6.036v-6.03a1.407,1.407,0,1,1,2.814,0v6.03h6.032a1.407,1.407,0,1,1,0,2.814h-6.032v6.032A1.407,1.407,0,0,1,802.239,641.714Zm-93.947-41.448a1.4,1.4,0,0,1-1-.413l-4.268-4.266-4.268,4.266a1.406,1.406,0,0,1-1.988-1.988l4.268-4.268-4.268-4.266a1.406,1.406,0,0,1,1.988-1.988l4.268,4.266,4.268-4.266a1.406,1.406,0,1,1,1.988,1.988L705.02,593.6l4.266,4.268a1.407,1.407,0,0,1-.993,2.4Zm-94.859-54.412a1.407,1.407,0,0,1-1.406-1.406v-1.56a1.407,1.407,0,0,1,2.814,0v1.56A1.408,1.408,0,0,1,613.433,545.854Zm0-8.817a1.408,1.408,0,0,1-1.406-1.408v-3.9a1.408,1.408,0,0,1,1.213-1.394c.127-.017,3.259-.513,3.259-3.018a3.14,3.14,0,0,0-1.1-2.679c-1.959-1.5-6.154-.829-7.6-.445a1.405,1.405,0,0,1-.727-2.715c.667-.179,6.634-1.682,10.04.928a5.858,5.858,0,0,1,2.208,4.912c0,3.247-2.492,4.883-4.472,5.521v2.79A1.408,1.408,0,0,1,613.433,537.037Zm94.84-10.57a1.409,1.409,0,0,1-1.406-1.408v-6.032h-6.032a1.407,1.407,0,1,1,0-2.814h6.032v-6.03a1.407,1.407,0,0,1,2.814,0v6.03h6.032a1.407,1.407,0,1,1,0,2.814h-6.032v6.032A1.411,1.411,0,0,1,708.273,526.467Zm-323.8-47.346a1.408,1.408,0,0,1-1-.413l-4.266-4.264-4.266,4.264a1.406,1.406,0,0,1-1.988-1.988l4.266-4.264-4.266-4.266a1.406,1.406,0,0,1,1.988-1.988l4.266,4.262,4.266-4.262a1.406,1.406,0,0,1,1.988,1.988l-4.266,4.266,4.266,4.264a1.407,1.407,0,0,1-.993,2.4Zm-7.733-32.013a1.4,1.4,0,0,1-1-.413l-4.266-4.266-4.266,4.266a1.407,1.407,0,1,1-1.99-1.988l4.266-4.266-4.266-4.266a1.407,1.407,0,0,1,1.99-1.988l4.266,4.266,4.266-4.266a1.407,1.407,0,0,1,1.99,1.988l-4.266,4.266,4.266,4.266a1.407,1.407,0,0,1-1,2.4Zm433.171-1.792a1.407,1.407,0,0,1-1.406-1.406v-6.038h-6.036a1.407,1.407,0,1,1,0-2.814H808.5v-6.03a1.407,1.407,0,0,1,2.814,0v6.03h6.032a1.407,1.407,0,0,1,0,2.814h-6.032v6.038A1.409,1.409,0,0,1,809.909,445.318ZM238.3,443H170.724a1.409,1.409,0,0,1-1.408-1.406V405.082a1.4,1.4,0,0,1,.548-1.132l12.068-9.339V385.74a1.411,1.411,0,0,1,1.408-1.408h11.874l8.443-6.536a1.4,1.4,0,0,1,1.722,0l8.437,6.534h11.875a1.409,1.409,0,0,1,1.406,1.408v8.871l12.063,9.336.056.044,0,.006h0a1.389,1.389,0,0,1,.459.76v.006a1.229,1.229,0,0,1,.029.208v0h0c0,.035,0,.069,0,.1v36.517A1.407,1.407,0,0,1,238.3,443Zm-62.889-2.814h58.2l-29.1-17.5Zm-3.286-32.9v31.6l29.411-17.69-18.561-8.776a1.438,1.438,0,0,1-.463-.218Zm35.362,13.906L236.9,438.88v-31.6l-10.524,4.977a1.67,1.67,0,0,1-.168.079Zm-10.437-5.232,7.461,3.527,7.459-3.527Zm-5.949-2.814h26.819l6.358-3.008v-14.5a1.432,1.432,0,0,1,0-.739v-7.749H213.349a.157.157,0,0,1-.031,0H184.746v7.749a1.384,1.384,0,0,1,0,.737v14.506l1.257.6a1.406,1.406,0,0,1,1.23-2.087h33.519a1.407,1.407,0,1,1,0,2.814H187.54ZM173.4,404.772l8.533,4.036V398.167Zm53.7-6.6v10.641l8.533-4.036Zm-27.288-13.835h9.415l-4.707-3.643Zm58.043,54.138a1.408,1.408,0,0,1-1.408-1.408v-1.984a1.407,1.407,0,1,1,2.814,0v1.984A1.408,1.408,0,0,1,257.852,438.47Zm0-9.764a1.408,1.408,0,0,1-1.408-1.406V409.6a1.407,1.407,0,1,1,2.814,0v17.7A1.407,1.407,0,0,1,257.852,428.706Zm488.121-7.479a1.4,1.4,0,0,1-1-.413l-4.266-4.266-4.266,4.266a1.406,1.406,0,0,1-1.988-1.988l4.266-4.266-4.266-4.266a1.406,1.406,0,1,1,1.988-1.988l4.266,4.266,4.266-4.266a1.406,1.406,0,1,1,1.988,1.988l-4.264,4.266,4.264,4.266a1.407,1.407,0,0,1-.993,2.4Zm-365.089-4.4a12.3,12.3,0,1,1,12.286-12.78c0,.052.008.108.008.162v.318a1.5,1.5,0,0,1-.015.21c-.195,3.251-2.171,5.726-4.659,5.726a4.167,4.167,0,0,1-3.35-1.851,6.36,6.36,0,1,1,1.46-4.682,1.322,1.322,0,0,1,.029.28c0,1.971.982,3.44,1.861,3.44.858,0,1.815-1.4,1.859-3.3a9.484,9.484,0,1,0-3.039,7.141,1.408,1.408,0,0,1,1.911,2.069A12.283,12.283,0,0,1,380.884,416.823Zm-.609-15.85a3.551,3.551,0,1,0,3.554,3.55A3.552,3.552,0,0,0,380.274,400.973Zm-159.522,5.982H187.233a1.407,1.407,0,0,1,0-2.814h33.519a1.407,1.407,0,1,1,0,2.814Zm63.173-1.024a1.412,1.412,0,0,1-1-.413l-4.268-4.268-4.268,4.268a1.407,1.407,0,0,1-1.99-1.99l4.268-4.266L272.4,395a1.407,1.407,0,0,1,1.99-1.99l4.268,4.266,4.264-4.266a1.407,1.407,0,1,1,1.988,1.99l-4.264,4.266,4.27,4.266a1.408,1.408,0,0,1-1,2.4Zm477.894-.833a1.408,1.408,0,0,1-1.408-1.408V401.7a1.407,1.407,0,0,1,2.814,0v1.988A1.408,1.408,0,0,1,761.819,405.1Zm-541.067-2.642H187.233a1.407,1.407,0,0,1,0-2.814h33.519a1.407,1.407,0,1,1,0,2.814Zm497.877-2.384H588.982a1.408,1.408,0,0,1-1.408-1.406v-70.1h0a1.464,1.464,0,0,1,.05-.357l0,0h0a1.413,1.413,0,0,1,.411-.665c.031-.027.062-.05.093-.075l24.279-18.8a1.405,1.405,0,1,1,1.722,2.222L591.655,328.3l36.139,17.084H679.82L715.954,328.3,693.482,310.89a1.405,1.405,0,1,1,1.722-2.222l24.285,18.808a1.4,1.4,0,0,1,.548,1.13v70.059A1.409,1.409,0,0,1,718.629,400.072Zm-125.3-2.812H714.286l-60.477-36.384Zm-2.937-66.451v64.933l60.446-36.357Zm66.4,28.576,60.438,36.357V330.809Zm-23.041-11.191,20.066,9.486,20.062-9.486Zm128.075,47.147a1.408,1.408,0,0,1-1.408-1.406V376.227a1.407,1.407,0,0,1,2.814,0v17.709A1.407,1.407,0,0,1,761.819,395.342Zm-561.585-1.45h-13a1.407,1.407,0,0,1,0-2.814h13a1.407,1.407,0,0,1,0,2.814Zm607.238-7.81a1.4,1.4,0,0,1-.993-.413L802.21,381.4l-4.266,4.266a1.406,1.406,0,0,1-1.988-1.988l4.266-4.266-4.266-4.266a1.407,1.407,0,0,1,1.988-1.99l4.266,4.266,4.268-4.266a1.407,1.407,0,0,1,1.988,1.99l-4.266,4.266,4.266,4.266a1.407,1.407,0,0,1-1,2.4ZM193.619,351.9a12.3,12.3,0,1,1,12.29-12.78,1.488,1.488,0,0,1,.01.162v.318a1.254,1.254,0,0,1-.017.21c-.193,3.251-2.171,5.728-4.659,5.728a4.167,4.167,0,0,1-3.35-1.855,6.358,6.358,0,1,1,1.462-4.68,1.463,1.463,0,0,1,.027.28c0,1.971.983,3.442,1.861,3.442.858,0,1.815-1.4,1.861-3.3a9.487,9.487,0,1,0-3.039,7.139,1.406,1.406,0,0,1,1.909,2.065A12.266,12.266,0,0,1,193.619,351.9Zm-.606-15.85a3.548,3.548,0,1,0,3.554,3.55A3.552,3.552,0,0,0,193.013,336.047Zm376.6,8.774a1.4,1.4,0,0,1-1-.413l-4.266-4.266-4.268,4.266a1.406,1.406,0,1,1-1.988-1.988l4.266-4.266-4.266-4.268a1.406,1.406,0,0,1,1.988-1.988l4.268,4.266,4.266-4.266a1.406,1.406,0,0,1,1.988,1.988l-4.266,4.268,4.266,4.266a1.407,1.407,0,0,1-.993,2.4Zm115.345-5.261h-64.3a1.407,1.407,0,0,1,0-2.814h64.3a1.407,1.407,0,1,1,0,2.814ZM487.827,328.883a1.407,1.407,0,0,1-1.406-1.4l-.039-6.032-6.038.035h-.008a1.407,1.407,0,0,1-.008-2.814l6.036-.035-.041-6.03a1.408,1.408,0,0,1,1.4-1.415h.01a1.407,1.407,0,0,1,1.406,1.4l.039,6.032,6.03-.035h.008a1.407,1.407,0,0,1,.006,2.814l-6.026.035.041,6.03a1.407,1.407,0,0,1-1.4,1.415ZM645.6,305.859H620.653a1.407,1.407,0,0,1,0-2.814H645.6a1.407,1.407,0,1,1,0,2.814Zm25.13-12.955a1.409,1.409,0,0,1-.858-.293L653.809,280.18l-16.058,12.431a1.407,1.407,0,1,1-1.722-2.225l16.92-13.1a1.4,1.4,0,0,1,1.72,0l16.92,13.1a1.407,1.407,0,0,1-.864,2.519Zm38.313-.023a1.409,1.409,0,0,1-1.406-1.408v-1.566a1.407,1.407,0,1,1,2.814,0v1.566A1.409,1.409,0,0,1,709.039,292.88Zm0-8.821a1.407,1.407,0,0,1-1.406-1.406v-3.907a1.407,1.407,0,0,1,1.215-1.392c.125-.019,3.248-.511,3.248-3.014a3.14,3.14,0,0,0-1.1-2.679c-1.959-1.506-6.148-.829-7.594-.445a1.406,1.406,0,1,1-.729-2.715c.665-.181,6.624-1.685,10.032.926a5.862,5.862,0,0,1,2.208,4.914c0,3.246-2.484,4.883-4.462,5.517v2.8A1.408,1.408,0,0,1,709.039,284.06ZM545.906,271.6a1.408,1.408,0,0,1-1.408-1.406v-6.032h-6.032a1.407,1.407,0,0,1,0-2.814H544.5v-6.032a1.407,1.407,0,0,1,2.814,0v6.032h6.032a1.407,1.407,0,1,1,0,2.814h-6.032v6.032A1.407,1.407,0,0,1,545.906,271.6Zm200.066-16.454a1.4,1.4,0,0,1-1-.413l-4.266-4.266-4.266,4.266a1.406,1.406,0,1,1-1.988-1.988l4.266-4.266-4.266-4.266a1.406,1.406,0,1,1,1.988-1.988l4.266,4.266,4.266-4.266a1.406,1.406,0,0,1,1.988,1.988L742.7,248.48l4.264,4.266a1.407,1.407,0,0,1-.993,2.4Zm-79.5-28a12.3,12.3,0,1,1,12.29-12.782,1.459,1.459,0,0,1,.01.162v.318a1.257,1.257,0,0,1-.017.21c-.193,3.253-2.169,5.729-4.657,5.729a4.184,4.184,0,0,1-3.354-1.853,6.362,6.362,0,1,1,1.458-4.686,1.354,1.354,0,0,1,.029.282c0,1.971.985,3.444,1.867,3.444.858,0,1.815-1.4,1.859-3.305a9.48,9.48,0,1,0-3.039,7.145,1.407,1.407,0,1,1,1.909,2.067A12.275,12.275,0,0,1,666.472,227.151Zm-.6-15.85a3.55,3.55,0,1,0,3.548,3.548A3.551,3.551,0,0,0,665.868,211.3ZM518.042,194.9a12.3,12.3,0,1,1,12.292-12.78c0,.052.008.108.008.162v.318a1.5,1.5,0,0,1-.015.21c-.195,3.253-2.173,5.728-4.665,5.728a4.173,4.173,0,0,1-3.352-1.853,6.36,6.36,0,1,1,1.46-4.684,1.354,1.354,0,0,1,.029.282c0,1.969.984,3.442,1.863,3.442.86,0,1.82-1.4,1.865-3.3a9.483,9.483,0,1,0-3.041,7.143,1.407,1.407,0,1,1,1.907,2.069A12.287,12.287,0,0,1,518.042,194.9Zm-.606-15.85a3.549,3.549,0,1,0,3.548,3.55A3.555,3.555,0,0,0,517.436,179.051Zm79.055,13.565a1.407,1.407,0,0,1-1.406-1.406v-1a1.407,1.407,0,0,1,2.814,0v1A1.409,1.409,0,0,1,596.492,192.616Zm0-5.647a1.409,1.409,0,0,1-1.406-1.408v-2.5a1.4,1.4,0,0,1,1.215-1.392c.16-.025,1.653-.289,1.653-1.433a1.468,1.468,0,0,0-.509-1.311c-1-.773-3.421-.469-4.436-.2a1.406,1.406,0,0,1-.727-2.717c.451-.122,4.5-1.136,6.873.685a4.236,4.236,0,0,1,1.612,3.544,4.139,4.139,0,0,1-2.868,3.892v1.433A1.411,1.411,0,0,1,596.492,186.969ZM480.612,167.081a1.4,1.4,0,0,1-.993-.413l-4.268-4.266-4.266,4.266a1.406,1.406,0,1,1-1.988-1.988l4.266-4.266-4.266-4.266a1.406,1.406,0,1,1,1.988-1.988l4.266,4.266,4.268-4.266a1.406,1.406,0,0,1,1.988,1.988l-4.266,4.266,4.266,4.266a1.407,1.407,0,0,1-1,2.4Z" transform="translate(7.586 7.783)"/><path class="b" d="M375.746,378.452H328.57a22.162,22.162,0,0,1,2.262,7.581H375.42c-.031-1.95,0-3.9.006-5.857a4.906,4.906,0,0,1,.32-1.724Z" transform="translate(155.448 216.411)"/><path class="b" d="M307.52,312.218l-.243-1s-.139.21-.364.573c.2.141.4.284.607.422Z" transform="translate(135.34 153.992)"/><path class="b" d="M375.528,312.218l.249-1s.139.21.365.573c-.2.141-.407.284-.613.422Z" transform="translate(199.046 153.992)"/><path class="b" d="M457.82,429.682c-5.411,17.487-16.338,30.4-25.286,38.621l20.582-90.574c5.242,12.419,10.807,32.225,4.7,51.953ZM421.45,488.417l.013-.006a8.536,8.536,0,0,0-3.649,2.027,8.752,8.752,0,0,0-6.048-2.345c-4.029,0-7.39,2.565-8.148,5.961H363.492a.47.47,0,0,1,.019.093c-.717-3.44-4.1-6.053-8.161-6.053a8.771,8.771,0,0,0-6.053,2.345,8.459,8.459,0,0,0-3.406-1.961l-27.243-119.84a45.5,45.5,0,0,0,52.878-4.808l12.614,18,13.534-17.325a45.5,45.5,0,0,0,50.842,4.833L421.45,488.417Zm5.758,19.63c0,1.329-1.531,2.449-3.346,2.449s-3.34-1.12-3.34-2.449V495.5c0-1.331,1.529-2.451,3.34-2.451s3.346,1.12,3.346,2.451v12.543Zm-12.1,0c0,1.329-1.525,2.449-3.338,2.449s-3.346-1.12-3.346-2.449V495.5c0-1.331,1.533-2.451,3.346-2.451s3.338,1.12,3.338,2.451v12.543Zm-56.413,0c0,1.329-1.533,2.449-3.342,2.449s-3.344-1.12-3.344-2.449V495.5c0-1.331,1.533-2.451,3.344-2.451s3.342,1.12,3.342,2.451v12.543Zm-12.1,0c0,1.329-1.535,2.449-3.342,2.449s-3.346-1.12-3.346-2.449V495.5c0-1.331,1.531-2.451,3.346-2.451s3.342,1.12,3.342,2.451v12.543ZM308.71,429.682c-6.308-20.386-.158-40.856,5.224-53.174l21.072,92.724c-9.118-8.163-20.683-21.408-26.3-39.551Zm-6.248-100.375a39.335,39.335,0,0,1,32.036-38.6c.571-.11,1.146-.2,1.722-.285l.108-.017c.552-.075,1.107-.143,1.674-.2.181-.017.363-.029.538-.044.43-.033.858-.071,1.286-.094.636-.027,1.275-.044,1.915-.044.607,0,1.209.017,1.815.044.16.006.318.017.484.029.472.027.943.066,1.415.11.139.01.28.021.419.033.571.06,1.136.137,1.7.22.17.027.336.054.5.083.407.066.816.137,1.211.212.22.044.432.089.642.133.407.087.808.181,1.207.28.3.071.6.154.9.231.345.093.692.193,1.034.3.278.081.553.17.829.262.239.077.476.16.714.243,1.082.372,2.148.8,3.188,1.269.118.05.235.1.355.158.365.172.725.341,1.082.517l.062.035q1.8.9,3.489,1.977a39.275,39.275,0,1,1-60.322,33.15Zm105.77-51.39,4.638-4.912,8.427-9.016a17.367,17.367,0,0,1,1.867-1.89c.226.939.4,2.22.513,3.028.071.526.137,1.038.212,1.512l.309,2.6.2,1.444,1.527,13a45.255,45.255,0,0,0-16.537,3.4c-.087.031-.175.071-.264.11-.8.33-1.587.687-2.362,1.065-.1.044-.193.1-.3.148-.773.384-1.549.785-2.3,1.215-.021.015-.046.027-.062.039-.714.4-1.406.835-2.094,1.279-.137.089-.278.175-.415.27-.069.044-.139.083-.206.127l.008.006a45.894,45.894,0,0,0-17.2,21.281,45.857,45.857,0,0,0-19.337-22.6l.012-.027a45.282,45.282,0,0,0-21.257-6.273l.766-6.642-.014-.012.457-3.878.4-3.5.006.015.241-2.05.035-.039.1-.856c.077-.473.145-.984.216-1.512.11-.812.285-2.087.505-3.026a18.739,18.739,0,0,1,1.944,1.965l12.647,13.528a72.886,72.886,0,0,1,24-3.868m8.132,86.274v-.006l-8.638,11.06-8.333-11.885a45.614,45.614,0,0,0,8.119-13.3,45.7,45.7,0,0,0,8.852,14.136Zm72.884-30.819A39.282,39.282,0,1,1,404.618,296.8l.006.006c.276-.187.555-.368.839-.55.156-.1.309-.2.471-.3.284-.177.571-.347.854-.517.2-.116.391-.231.59-.341.28-.16.553-.314.833-.467l.771-.39c.411-.21.827-.413,1.246-.6.28-.127.553-.26.841-.38.241-.1.5-.21.741-.312.3-.121.594-.237.891-.353.231-.087.461-.175.692-.258.467-.17.939-.33,1.415-.484.172-.048.341-.1.513-.152.422-.127.85-.253,1.28-.362.2-.056.4-.1.6-.154.39-.1.787-.187,1.178-.27.185-.042.372-.081.561-.122.571-.114,1.142-.22,1.716-.307.035-.006.068-.012.1-.016.553-.083,1.115-.156,1.682-.216l.515-.048c.451-.039.9-.077,1.358-.1.166-.006.338-.017.505-.029.606-.027,1.215-.044,1.83-.044s1.2.017,1.792.044c.179.012.361.017.542.029.422.027.841.06,1.259.1.2.015.4.033.6.054.517.056,1.03.122,1.535.193.312.05.619.1.928.154l.654.116c.357.071.714.143,1.072.218l.224.052c.833.191,1.66.4,2.466.642a39.337,39.337,0,0,1,28.215,37.682ZM432.619,495.5c0-1.331,1.527-2.451,3.342-2.451s3.346,1.12,3.346,2.451v12.543c0,1.329-1.535,2.449-3.346,2.449s-3.342-1.12-3.342-2.449V495.5ZM334.5,508.047c0,1.329-1.533,2.449-3.348,2.449s-3.338-1.12-3.338-2.449V495.5c0-1.331,1.531-2.451,3.338-2.451s3.348,1.12,3.348,2.451v12.543ZM456.239,364a45.582,45.582,0,0,0-15.906-78.209l.006-.012a45.427,45.427,0,0,0-8.142-1.757l-2.133-18.174-.015-.131c-.073-.44-.139-.924-.2-1.417-.472-3.456-1.051-7.752-4.621-8.825-3.34-1-6.36,1.836-8.547,4.341l-10.173,10.878-.058.083a74.953,74.953,0,0,0-21.531-3.149,81.573,81.573,0,0,0-22.172,2.956l-9.856-10.566c-2.256-2.58-5.28-5.415-8.62-4.416-3.57,1.072-4.146,5.369-4.619,8.817-.069.5-.133.98-.2,1.423l-2.121,18.052a1.027,1.027,0,0,1-.131.017c-.372.039-.741.087-1.1.137-.4.05-.8.094-1.192.152-.326.05-.648.112-.966.166-.43.073-.86.15-1.286.237-.112.021-.229.039-.347.066l0,.012a45.588,45.588,0,0,0-21.479,78.143l.841,3.7c-5.868,10.894-17.514,37.557-9.016,65.035,7.581,24.513,24.748,40.378,34.676,47.872l2.16,9.476h0a8.315,8.315,0,0,0-2.285,1.527,8.777,8.777,0,0,0-6.05-2.345c-4.574,0-8.306,3.323-8.306,7.411v12.543c0,4.086,3.732,7.409,8.306,7.409a8.768,8.768,0,0,0,6.05-2.345,8.973,8.973,0,0,0,12.1,0,8.788,8.788,0,0,0,6.053,2.345c4.576,0,8.308-3.323,8.308-7.409V500.4h39.8v7.648c0,4.086,3.726,7.409,8.308,7.409a8.77,8.77,0,0,0,6.048-2.345,8.971,8.971,0,0,0,12.1,0,8.776,8.776,0,0,0,6.052,2.345c4.582,0,8.308-3.323,8.308-7.409V495.5c0-4.088-3.726-7.411-8.308-7.411a8.759,8.759,0,0,0-6.052,2.345,8.17,8.17,0,0,0-2.1-1.444l.015.006,2.347-10.311c10.042-7.77,26.366-23.392,33.709-47.126,8.242-26.634-2.451-52.487-8.452-63.975l.812-3.589Z" transform="translate(125.316 102.04)"/><path class="b" d="M323.064,303.781a6.831,6.831,0,1,0-6.831-6.833,6.829,6.829,0,0,0,6.831,6.833Z" transform="translate(143.993 134.399)"/><path class="b" d="M341.662,329.537c-8.62,2.326-12.252-3.878-12.647-4.615a3.171,3.171,0,0,0-5.625,2.929,16.672,16.672,0,0,0,14.62,8.547,20.444,20.444,0,0,0,5.307-.735,3.173,3.173,0,0,0-1.655-6.127Z" transform="translate(150.31 165.135)"/><path class="b" d="M367.092,290.12a6.831,6.831,0,1,0,6.834,6.829,6.832,6.832,0,0,0-6.834-6.829Z" transform="translate(184.873 134.399)"/><path class="a" d="M448.534,705.1h-9.949a1.412,1.412,0,0,1-1.219-.7l-3.259-5.648a8.315,8.315,0,0,1-2.449-10.555,3.664,3.664,0,0,1-.8-2.287,3.705,3.705,0,0,1,2.355-3.45c-.3-10.888-4.8-16.415-9.554-22.256-5-6.144-10.173-12.495-10.173-25.08a30.069,30.069,0,0,1,60.137,0c0,12.585-5.172,18.936-10.171,25.08-4.758,5.841-9.259,11.368-9.556,22.256a3.71,3.71,0,0,1,2.353,3.45v.006a3.653,3.653,0,0,0,0,4.568v.012a3.666,3.666,0,0,0,0,4.582v.006a3.7,3.7,0,0,1-3.24,3.67l-3.259,5.647A1.412,1.412,0,0,1,448.534,705.1Zm-9.137-2.814h8.325l2.025-3.508H437.37Zm12.811-6.321h.347a.887.887,0,0,0,0-1.774H434.563a.878.878,0,0,0-.889.889.891.891,0,0,0,.889.885h.239a1.439,1.439,0,0,1,.258,0h17.1A.221.221,0,0,0,452.208,695.961Zm-17.645-4.588h17.993a.888.888,0,0,0,0-1.776H434.563a.888.888,0,1,0,0,1.776Zm0-4.59h17.993a.876.876,0,0,0,.883-.885.888.888,0,0,0-.883-.887h-18a.886.886,0,1,0,.006,1.772Zm20.284-.881h0Zm-18.826-3.7h15.073c.37-11.731,5.353-17.852,10.18-23.778,4.906-6.026,9.538-11.717,9.538-23.3a27.255,27.255,0,0,0-54.51,0c0,11.586,4.634,17.277,9.54,23.3C430.669,664.345,435.652,670.466,436.02,682.2ZM329.837,566.671a8.978,8.978,0,1,1,8.977-8.981A8.993,8.993,0,0,1,329.837,566.671Zm0-15.142A6.164,6.164,0,1,0,336,557.69,6.175,6.175,0,0,0,329.837,551.528Zm-17.856-188.87H275.935a1.409,1.409,0,0,1-1.406-1.408v-7.465a1.409,1.409,0,0,1,1.406-1.408h13.339v-16.9a80.649,80.649,0,0,1-36.861-149.658l-6.428-11.131a1.407,1.407,0,0,1,2.438-1.406l7.1,12.306.021.035.019.033,4.21,7.3a70.816,70.816,0,0,1,95.511,26.605h0a70.815,70.815,0,0,1-24.711,96.026l4.152,7.193a1.171,1.171,0,0,1,.089.135q.041.072.075.145l7.039,12.2a1.406,1.406,0,1,1-2.438,1.4l-6.424-11.125a80.2,80.2,0,0,1-34.421,9.966v16.884h13.333a1.409,1.409,0,0,1,1.406,1.408v7.465A1.409,1.409,0,0,1,311.982,362.659Zm-34.639-2.814h33.231v-4.653H277.343Zm14.745-7.467h3.747V335.6c-1.248.029-2.5.023-3.747-.006ZM253.819,188.256a77.859,77.859,0,0,0,77.844,134.834l-3.523-6.1a70.815,70.815,0,0,1-70.8-122.633ZM235.786,290.176a68.04,68.04,0,0,0,81.387,28.73c-6.273-.428-13.312-3.112-20.7-7.99-12.1-7.988-23.813-20.98-33.083-36.679Zm30.043-17.345c9.054,15.326,20.451,27.984,32.2,35.74,11.129,7.346,21.242,9.419,28.684,5.942L293.443,256.89Zm30.049-17.348L329.147,313.1c6.742-4.7,10-14.5,9.2-27.818-.845-14.049-6.109-30.242-14.859-45.743Zm30.047-17.345c8.962,15.873,14.357,32.508,15.229,46.981.53,8.832-.663,16.27-3.429,21.919a68.047,68.047,0,0,0,15.817-84.845Zm-75.75-35.212a68.114,68.114,0,0,0-15.8,84.814L261.988,271.8c-8.96-15.875-14.357-32.51-15.227-46.981C246.233,216,247.421,208.571,250.176,202.926Zm8.6-6.094c-6.742,4.705-10,14.506-9.2,27.818.845,14.047,6.109,30.244,14.855,45.745l27.614-15.943Zm2.436-1.406,33.268,57.622,27.608-15.941c-9.048-15.325-20.442-27.984-32.186-35.738C278.77,194.022,268.655,191.942,261.207,195.426Zm9.538-4.395c6.275.428,13.316,3.114,20.7,7.992,12.1,7.99,23.807,20.982,33.073,36.679l27.617-15.945a68.041,68.041,0,0,0-81.393-28.726Z" transform="translate(48.427 25.265)"/></g></svg>