<svg xmlns="http://www.w3.org/2000/svg" width="168" height="168" viewBox="0 0 168 168"><defs><style>.a,.b{fill:#fff;}.a{stroke:#707070;opacity:0;}.c{fill:#007ecb;}.d{fill:#00b2f1;}.e{fill:#1a1818;}.f{stroke:none;}.g{fill:none;}</style></defs><g transform="translate(-362 -255)"><g class="a" transform="translate(362 255)"><rect class="f" width="168" height="168"/><rect class="g" x="0.5" y="0.5" width="167" height="167"/></g><g transform="translate(303.635 73.876)"><path class="b" d="M235.231,249.6a12.752,12.752,0,0,0-12.751,12.7h0a12.757,12.757,0,1,0-3.643,8.973l.073.131,3.594,5.124,3.824-4.894.042-.118a12.752,12.752,0,1,0,8.863-21.919Z" transform="translate(-79.623 -27.992)"/><rect class="c" width="104.984" height="33.249" transform="translate(90.364 284.621)"/><g transform="translate(99.732 291.258)"><path class="b" d="M130.456,526.289a1.542,1.542,0,1,1-3.083,0,1.542,1.542,0,0,1,3.083,0Zm-.46,17.5h-2.163v-12.71H130Z" transform="translate(-127.373 -524.748)"/><path class="b" d="M172.558,551.656a2.03,2.03,0,0,0-1.731-1.3,1.54,1.54,0,0,0-1.568,1.405c0,1.163,1.46,1.6,2.947,2.217s2.948,1.515,2.948,3.651a4.158,4.158,0,0,1-4.3,4.137,4.569,4.569,0,0,1-4.488-3.218l1.919-.812c.541,1.19,1.163,2.029,2.6,2.029a1.933,1.933,0,0,0,2.055-1.948c0-2.839-5.733-1.865-5.733-5.868a3.622,3.622,0,0,1,3.786-3.6,3.84,3.84,0,0,1,3.38,2.353Z" transform="translate(-156.496 -542.381)"/><path class="b" d="M230.273,550.087h.054a3.588,3.588,0,0,1,3.056-1.73,3.9,3.9,0,0,1,3.515,2.109,4.233,4.233,0,0,1,3.813-2.109c3.245,0,4.056,2.65,4.056,5.327v7.734H242.6v-7.382c0-1.65-.108-3.677-2.325-3.677-2.488,0-2.758,2.406-2.758,4.326v6.733h-2.163V554.2c0-1.569-.189-3.84-2.271-3.84-2.542,0-2.812,2.568-2.812,4.488v6.571H228.11v-12.71h2.163Z" transform="translate(-202.611 -542.381)"/><path class="b" d="M333.517,561.418h-2.163V559.66H331.3a5.343,5.343,0,0,1-4.381,2.11c-3.732,0-6.084-3.164-6.084-6.679,0-3.624,2.3-6.733,6.111-6.733a5.5,5.5,0,0,1,4.354,2.163h.054v-1.812h2.163Zm-10.465-6.49c0,2.488,1.46,4.841,4.164,4.841,2.785,0,4.245-2.245,4.245-4.813,0-2.542-1.595-4.6-4.272-4.6A4.308,4.308,0,0,0,323.052,554.928Z" transform="translate(-271.864 -542.381)"/><path class="b" d="M403.438,550.087h.054c.757-1,1.406-1.73,2.812-1.73a3.827,3.827,0,0,1,1.947.595l-1.028,1.974a2.107,2.107,0,0,0-1.3-.567c-2.379,0-2.487,3.055-2.487,4.7v6.355h-2.164v-12.71h2.164Z" transform="translate(-331.943 -542.381)"/><path class="b" d="M453.238,548.971h-2.163V538.263H449.75v-2h1.325v-4.57h2.163v4.57h2.272v2h-2.272Z" transform="translate(-368.148 -529.934)"/></g><g transform="translate(118.418 244.537)"><path class="c" d="M218.1,340.474l-.074-.3s-.041.063-.109.172C217.977,340.39,218.038,340.432,218.1,340.474Z" transform="translate(-213.683 -340.174)"/><path class="c" d="M204.855,344.743c-1.608,2.92-5.329,10.96-2.809,19.1a28.734,28.734,0,0,0,10.356,14.1Z" transform="translate(-201.194 -343.586)"/></g><g transform="translate(155.609 244.537)"><path class="c" d="M374.951,340.474l.074-.3s.041.063.109.172C375.073,340.39,375.012,340.432,374.951,340.474Z" transform="translate(-368.159 -340.174)"/><path class="c" d="M355.665,344.743c1.608,2.92,5.329,10.96,2.809,19.1a28.735,28.735,0,0,1-10.356,14.1Z" transform="translate(-348.118 -343.586)"/></g><g transform="translate(121.679 214.015)"><path class="d" d="M244.879,227.206c.208-.01.416-.016.626-.016a12.753,12.753,0,0,1,12.752,12.7h0a12.752,12.752,0,0,1,12.751-12.7c.342,0,.679.017,1.014.044-.417-.338-.851-.68-1.313-1.027l.107-.009-.787-6.6s-2.5,2.726-3.83,4.182a21.535,21.535,0,0,0-7.726-1.426,22.608,22.608,0,0,0-7.927,1.354c-1.349-1.479-3.731-4.073-3.731-4.073l-.788,6.6h.005c-.322.255-.641.52-.951.808C245.084,227.044,245.008,227.1,244.879,227.206Z" transform="translate(-237.082 -219.594)"/><path class="d" d="M248.006,339.066a12.708,12.708,0,0,1-8.863-3.588l-.042.118-3.824,4.894-3.594-5.124-.073-.131a12.743,12.743,0,0,1-17.532.648l9.289,40.87h23.455l8.789-38.67a21.342,21.342,0,0,0,.681-2.079A12.7,12.7,0,0,1,248.006,339.066Z" transform="translate(-214.077 -305.964)"/></g><g transform="translate(125.173 282.806)"><path class="b" d="M231.376,496.61a1.632,1.632,0,0,1-1.75,1.481h0a1.632,1.632,0,0,1-1.749-1.481v-3.769a1.632,1.632,0,0,1,1.749-1.481h0a1.632,1.632,0,0,1,1.75,1.481Z" transform="translate(-227.877 -491.361)"/><path class="b" d="M245.731,496.61a1.632,1.632,0,0,1-1.749,1.481h0a1.632,1.632,0,0,1-1.75-1.481v-3.769a1.632,1.632,0,0,1,1.75-1.481h0a1.632,1.632,0,0,1,1.749,1.481Z" transform="translate(-238.598 -491.361)"/><path class="b" d="M260.088,496.61a1.632,1.632,0,0,1-1.75,1.481h0a1.632,1.632,0,0,1-1.75-1.481v-3.769a1.632,1.632,0,0,1,1.75-1.481h0a1.632,1.632,0,0,1,1.75,1.481Z" transform="translate(-249.32 -491.361)"/><path class="b" d="M327.039,496.61a1.632,1.632,0,0,1-1.749,1.481h0a1.633,1.633,0,0,1-1.75-1.481v-3.769a1.633,1.633,0,0,1,1.75-1.481h0a1.632,1.632,0,0,1,1.749,1.481Z" transform="translate(-299.325 -491.361)"/><path class="b" d="M341.4,496.61a1.633,1.633,0,0,1-1.75,1.481h0a1.633,1.633,0,0,1-1.75-1.481v-3.769a1.633,1.633,0,0,1,1.75-1.481h0a1.633,1.633,0,0,1,1.75,1.481Z" transform="translate(-310.047 -491.361)"/><path class="b" d="M355.753,496.61a1.632,1.632,0,0,1-1.75,1.481h0a1.633,1.633,0,0,1-1.75-1.481v-3.769a1.633,1.633,0,0,1,1.75-1.481h0a1.632,1.632,0,0,1,1.75,1.481Z" transform="translate(-320.77 -491.361)"/></g><g transform="translate(116.397 212.124)"><path class="e" d="M241.307,244.785a13.692,13.692,0,0,0-4.778-23.493l0,0a13.612,13.612,0,0,0-2.445-.529l-.64-5.458-.006-.04c-.022-.133-.041-.278-.061-.427-.14-1.037-.315-2.327-1.387-2.649-1-.3-1.911.551-2.568,1.3l-3.054,3.268-.019.024a22.556,22.556,0,0,0-6.468-.945,24.531,24.531,0,0,0-6.659.887l-2.962-3.172c-.678-.777-1.585-1.628-2.589-1.327-1.072.321-1.246,1.612-1.387,2.649-.02.149-.039.294-.061.427l-.637,5.423-.041.005c-.111.011-.221.026-.332.04s-.239.03-.358.047c-.1.015-.194.032-.29.049-.129.022-.257.045-.385.071l-.1.019v0a13.694,13.694,0,0,0-6.453,23.474l.253,1.112c-1.762,3.273-5.262,11.282-2.709,19.535a29.417,29.417,0,0,0,10.418,14.381l.647,2.846h0a2.517,2.517,0,0,0-.686.458,2.634,2.634,0,0,0-1.817-.705,2.375,2.375,0,0,0-2.495,2.226v3.769a2.375,2.375,0,0,0,2.495,2.227,2.634,2.634,0,0,0,1.817-.705,2.693,2.693,0,0,0,3.634,0,2.635,2.635,0,0,0,1.817.705,2.376,2.376,0,0,0,2.5-2.227v-2.3h11.956v2.3a2.376,2.376,0,0,0,2.5,2.227,2.632,2.632,0,0,0,1.816-.705,2.693,2.693,0,0,0,3.634,0,2.634,2.634,0,0,0,1.817.705,2.375,2.375,0,0,0,2.5-2.227v-3.769a2.375,2.375,0,0,0-2.5-2.226,2.634,2.634,0,0,0-1.817.7,2.52,2.52,0,0,0-.632-.434l.005,0,.7-3.1A29.316,29.316,0,0,0,243.6,265.08c2.475-8-.736-15.767-2.54-19.217Zm-36.57,43.27c0,.4-.46.735-1,.735s-1-.337-1-.735v-3.769c0-.4.46-.735,1-.735s1,.336,1,.735Zm29.475-3.769c0-.4.46-.735,1-.735s1,.336,1,.735v3.769c0,.4-.46.735-1,.735s-1-.337-1-.735Zm10.008-49.923A11.8,11.8,0,1,1,225.8,224.6h0c.083-.057.168-.111.253-.166l.14-.09c.085-.053.171-.1.258-.156l.177-.1c.083-.047.167-.094.251-.139s.153-.079.23-.118q.186-.094.375-.182c.083-.039.167-.077.251-.114s.149-.063.224-.094.178-.072.267-.106c.069-.026.138-.053.208-.078q.211-.076.427-.145l.152-.046c.128-.038.256-.075.385-.11l.182-.046q.175-.044.353-.082l.168-.036c.171-.034.343-.066.517-.093l.03,0c.167-.025.335-.046.5-.064l.156-.015c.135-.013.271-.023.407-.031l.152-.009c.183-.008.366-.014.551-.014s.36.006.538.014l.164.009c.127.007.253.017.378.029.06.005.12.01.179.016q.232.025.46.058c.093.014.186.03.278.046l.2.035c.107.02.215.042.321.065l.069.016q.375.085.741.192A11.819,11.819,0,0,1,244.22,234.364Zm-21.894,9.257h0l-2.595,3.321-2.5-3.568a13.745,13.745,0,0,0,2.438-4A13.75,13.75,0,0,0,222.326,243.621ZM207.7,218.673l.137-1.165.12-1.051,0,0,.072-.614.01-.012.03-.257c.023-.142.044-.3.065-.453.033-.244.085-.628.152-.911a5.566,5.566,0,0,1,.584.591l3.8,4.064a21.919,21.919,0,0,1,7.211-1.162,20.621,20.621,0,0,1,7,1.222l1.393-1.476,2.531-2.708a5.319,5.319,0,0,1,.562-.569c.067.283.119.667.152.911.022.158.042.311.065.453l.092.782.062.433.458,3.908a13.591,13.591,0,0,0-4.968,1.019l-.079.033q-.359.15-.708.32l-.089.045c-.234.116-.466.237-.692.366l-.018.011c-.214.122-.423.251-.629.384l-.125.081-.061.039,0,0a13.781,13.781,0,0,0-5.168,6.392,13.774,13.774,0,0,0-5.808-6.789l0-.009a13.6,13.6,0,0,0-6.385-1.884l.228-1.994Zm-12.589,15.691a11.817,11.817,0,0,1,9.624-11.6q.257-.048.517-.086l.031,0c.167-.023.335-.044.5-.06l.162-.012c.129-.011.257-.022.387-.028.191-.009.382-.015.575-.015s.364.006.545.014l.145.008q.214.013.426.033l.126.011q.257.027.512.065l.15.025q.183.03.363.065l.193.039q.182.039.362.084.136.033.27.07c.1.028.207.057.309.088.084.025.167.052.25.079l.213.072q.489.17.958.381l.107.049q.164.076.325.156l.018.009a11.8,11.8,0,1,1-17.073,10.553Zm1.877,30.152c-1.9-6.124-.048-12.273,1.569-15.973l6.331,27.853A26.95,26.95,0,0,1,196.991,264.516Zm11.38,23.539c0,.4-.46.735-1,.735s-1-.337-1-.735v-3.769c0-.4.46-.735,1-.735s1,.336,1,.735Zm3.634,0c0,.4-.46.735-1,.735s-1-.337-1-.735v-3.769c0-.4.46-.735,1-.735s1,.336,1,.735Zm16.947,0c0,.4-.46.735-1,.735s-1-.337-1-.735v-3.769c0-.4.46-.735,1-.735s1,.336,1,.735Zm3.634,0c0,.4-.46.735-1,.735s-1-.337-1-.735v-3.769c0-.4.46-.735,1-.735s1,.336,1,.735Zm-1.728-5.9h0a2.567,2.567,0,0,0-1.1.608,2.633,2.633,0,0,0-1.816-.7,2.445,2.445,0,0,0-2.447,1.791H213.448c0,.009,0,.019,0,.029a2.439,2.439,0,0,0-2.452-1.82,2.635,2.635,0,0,0-1.817.7,2.554,2.554,0,0,0-1.024-.588l-8.183-36a13.666,13.666,0,0,0,15.884-1.443l3.788,5.408,4.066-5.2a13.669,13.669,0,0,0,15.273,1.452Zm10.923-17.642a26.769,26.769,0,0,1-7.6,11.6l6.183-27.207C241.945,252.641,243.616,258.59,241.782,264.516Z" transform="translate(-193.208 -212.124)"/><path class="e" d="M241.3,295.982a2.052,2.052,0,1,0-2.052-2.052A2.052,2.052,0,0,0,241.3,295.982Z" transform="translate(-227.594 -271.69)"/><path class="e" d="M260.412,369.541a3.157,3.157,0,0,1-3.8-1.385.953.953,0,0,0-1.691.879,5.007,5.007,0,0,0,4.392,2.568,6.1,6.1,0,0,0,1.593-.221.953.953,0,1,0-.5-1.84Z" transform="translate(-239.221 -328.278)"/><path class="e" d="M342.062,291.878a2.052,2.052,0,1,0,2.053,2.053A2.053,2.053,0,0,0,342.062,291.878Z" transform="translate(-302.85 -271.69)"/></g></g></g></svg>